<svg width="2301" height="1238" viewBox="0 0 2301 1238" fill="none" xmlns="http://www.w3.org/2000/svg">
<path d="M1631.27 1209.5C1454.62 1209.5 1264.17 1176.09 1049.33 1144.44C796.265 1107.14 860.485 1060.04 937.655 1044.38C937.338 1046.58 937.168 1048.87 937.168 1051.2C937.158 1059.94 939.39 1069.37 943.813 1077.24C950.108 1088.43 959.905 1094.59 971.035 1094.59C973.457 1094.59 975.954 1094.29 978.483 1093.7C986.735 1098.53 995.876 1101.02 1005.7 1101.02C1015.42 1101.02 1025.56 1098.66 1036.71 1093.78L1046.72 1089.38L1040.69 1080.49C1033.72 1070.34 1023.75 1053.53 1020.59 1037.14C1180.29 1027.85 1356.63 1003.94 1532.67 998.425C1532.93 1000.36 1533.58 1002.39 1534.77 1004.46C1538.69 1011.17 1547.22 1015.45 1560.83 1017.58L1561.28 1017.65L1561.27 1017.64C1576.89 1020.07 1589.17 1021.32 1597.79 1021.32C1600.94 1021.32 1607.26 1021.32 1612.45 1019.13C1617.05 1020.88 1622.38 1022.18 1629.05 1022.18C1636.29 1022.18 1644.76 1020.73 1657.45 1017.36L1665.75 1015.15L1664.21 1006.98C1663.62 1003.83 1662.86 1000.9 1661.99 998.18C1712.67 999.771 1763.02 1003.6 1812.56 1010.45C2089.89 1048.82 2065.13 1148.51 1832.32 1192.16C1766.98 1204.42 1700.18 1209.5 1631.27 1209.5Z" fill="#C8E1F1"/>
<path d="M1320.72 627.948C1334.92 585.664 1395.38 544.165 1442.79 544.165C1475.69 544.165 1528.22 554.313 1537.31 588.876C1553.51 650.569 1558.53 733.831 1547.75 770.139C1538.01 802.978 1512.72 844.803 1526.02 878.266C1540.39 914.43 1571.58 950.85 1584.66 956.551C1587.44 957.785 1593.52 958.387 1599.42 958.978C1620.63 961.12 1656.18 964.71 1664.21 1006.98L1665.75 1015.15L1657.45 1017.37C1644.76 1020.73 1636.29 1022.18 1629.05 1022.18C1622.37 1022.18 1617.05 1020.88 1612.45 1019.13C1607.25 1021.32 1600.94 1021.32 1597.79 1021.32C1589.09 1021.32 1576.66 1020.05 1560.83 1017.58C1547.21 1015.45 1538.69 1011.18 1534.77 1004.46C1532.32 1000.24 1532.22 996.132 1532.8 992.797L1530.22 991.277C1499.46 972.848 1417.09 901.988 1429.33 853.554C1436.23 826.334 1402.56 724.448 1336.31 678.309C1319.34 666.468 1313.82 648.58 1320.72 627.948Z" fill="#DBAF7E"/>
<path d="M1544.96 778.705C1545.99 775.798 1546.93 772.933 1547.75 770.138C1546.94 772.953 1545.99 775.798 1544.96 778.705Z" fill="#D1D1D1"/>
<path d="M1561.28 1017.65L1560.83 1017.58C1560.98 1017.6 1561.13 1017.62 1561.27 1017.64L1561.28 1017.65Z" fill="#AFAFAF"/>
<path d="M1561.27 1017.64C1561.13 1017.62 1560.98 1017.6 1560.83 1017.58C1547.22 1015.45 1538.69 1011.17 1534.77 1004.46C1533.58 1002.39 1532.93 1000.36 1532.67 998.426C1532.56 997.641 1532.51 996.876 1532.51 996.131C1532.51 994.959 1532.63 993.837 1532.81 992.796L1530.23 991.277C1501.56 974.112 1428.11 911.431 1428.11 863.772C1428.11 860.274 1428.5 856.858 1429.34 853.553C1429.93 851.208 1430.22 848.321 1430.22 844.956C1430.21 818.571 1412.03 763.264 1378.12 719.165C1379.35 711.679 1380.31 704.152 1381.01 696.605C1387.79 698.645 1394.65 700.664 1401.57 702.673C1450.92 716.35 1465.69 706.804 1552.81 737.379C1551.98 750.332 1550.31 761.551 1547.76 770.138C1546.93 772.932 1545.99 775.798 1544.96 778.705C1544.7 779.48 1544.41 780.255 1544.14 781.04L1453.63 804.671C1453.63 804.671 1453.63 839 1447.33 863.181C1441.07 887.352 1485.01 945.862 1535.21 972.083C1545.11 991.705 1549.73 1006.68 1561.27 1017.64Z" fill="#B98E5F"/>
<path d="M1102.14 384.462C1097.4 351.541 1085.17 316.702 1101.67 284.668C1104.15 290.022 1107.22 296.397 1108.66 302.557C1108.66 270.951 1109.72 245.046 1118.74 216.673C1114.96 234.561 1118.44 255.092 1123.9 274.592C1126.55 267.463 1129.38 260.375 1132.46 253.327C1134.8 229.503 1141.1 205.393 1147.9 182.691C1148.79 185.761 1151.82 189.769 1152.65 192.553C1154.74 184.17 1157.65 174.756 1162.22 166.699C1164.04 172.39 1166.36 179.733 1169.76 185.383C1173.19 150.759 1193.74 102.804 1220.44 79.0002C1203.62 93.1153 1197.04 128.566 1192.86 153.186C1207.07 127.057 1227.73 105.446 1256.94 94.3493C1250.52 101.57 1243.54 110.198 1237.22 119.612C1255.21 107.271 1274.45 98.1432 1294.62 93.2886C1282.56 112.36 1272.56 131.034 1264.32 149.229C1272.84 146.638 1281.44 145.058 1289.43 144.67C1272.73 167.709 1251.48 194.94 1252.22 224.485C1256.85 214.909 1263.71 212.012 1271.75 205.464C1202.97 291.634 1246.61 447.073 1326.01 503.186L1304.04 554.414C1139.65 571.956 1089.01 393.427 1094.35 371.837C1096.77 376.008 1099.63 380.179 1102.14 384.462Z" fill="#C79E71"/>
<path d="M1665.66 577.025C1662.08 556.679 1671.64 549.132 1677.68 546.449C1685.09 543.124 1694.9 543.471 1707.63 547.449C1719.49 551.202 1730.54 554.363 1741.22 557.403C1770.81 565.868 1794.18 572.527 1810.18 584.623C1813.83 587.346 1817.78 590.569 1822.08 594.19C1841.11 609.855 1867.17 631.364 1907.04 640.471C1958.96 652.312 2048.3 667.11 2074.68 666.753C2104.33 666.366 2134.43 673.413 2146.36 680.461C2154.96 685.509 2214.06 703.143 2239.38 705.478L2246.07 706.1C2269.51 708.14 2291.68 710.037 2298.15 731.515C2304.14 751.403 2296.21 769.506 2277.96 777.634C2271.99 780.306 2264.98 781.938 2257 782.581C2255.65 783.356 2254.43 784.049 2253.3 784.753C2249.95 786.721 2247.29 788.292 2244.73 789.434C2235.07 793.789 2228.58 791.239 2213.99 785.507C2196.73 778.715 2177.32 768.649 2170.12 764.774C2164.75 765.09 2155.73 763.856 2142.98 756.186C2126.49 746.273 2088.1 730.638 2048.91 734.881C2029.39 737.033 2005.41 736.543 1982.26 736.156C1953.07 735.605 1922.89 735.014 1901.62 739.481C1874.93 745.1 1841.47 731.107 1811.89 718.777C1793.25 711.016 1775.64 703.673 1763.11 702.48C1732.3 699.583 1672.85 617.759 1665.66 577.025Z" fill="#DBAF7E"/>
<path d="M2244.73 789.434C2245.83 788.945 2246.94 788.374 2248.13 787.731C2246.95 788.374 2245.83 788.965 2244.73 789.434ZM2248.54 787.507C2248.92 787.293 2249.32 787.068 2249.72 786.834L2249.73 786.844C2249.32 787.068 2248.93 787.293 2248.54 787.507ZM1857.78 620.411C1847.96 614.506 1839.44 608.172 1831.91 602.186C1831.92 602.175 1831.92 602.176 1831.92 602.155C1839.46 608.132 1847.98 614.475 1857.79 620.37L1857.78 620.411Z" fill="#D1D1D1"/>
<path d="M2235.32 791.627C2229.57 791.627 2223.51 789.24 2213.99 785.508C2196.73 778.715 2177.32 768.649 2170.12 764.774C2169.63 764.804 2169.11 764.815 2168.57 764.815C2163.09 764.815 2154.59 763.162 2142.98 756.186C2128.38 747.415 2096.65 734.167 2062.39 734.167C2057.93 734.167 2053.42 734.392 2048.92 734.881C2037.49 736.136 2024.55 736.493 2011.14 736.493C2001.62 736.493 1991.87 736.319 1982.26 736.156C1972.42 735.973 1962.47 735.779 1952.79 735.779C1933.74 735.779 1915.73 736.513 1901.62 739.481C1901.59 739.481 1901.56 739.491 1901.54 739.491C1898.45 738.553 1895.8 737.543 1893.72 736.452C1883.27 730.975 1873.29 729.078 1864.27 729.078C1857.16 729.078 1850.65 730.251 1844.97 731.791C1833.77 727.905 1822.58 723.234 1811.89 718.777C1800.12 713.872 1788.75 709.14 1778.8 706.009C1793.04 691.741 1798.69 677.646 1798.69 677.646C1811.02 661.165 1821.85 633.74 1831.91 602.185C1839.44 608.172 1847.96 614.506 1857.78 620.411L1832.32 702.857C1832.32 702.857 1843.56 719.502 1889.69 719.502C1899.82 719.502 1911.64 718.706 1925.41 716.738C1960.93 711.689 1994.44 707.671 2024.95 707.671C2059.99 707.671 2091.09 712.964 2116.83 728.069C2157.02 751.617 2207.4 775.921 2249.72 786.834C2249.32 787.068 2248.92 787.293 2248.54 787.507C2248.4 787.578 2248.26 787.66 2248.12 787.731C2246.94 788.374 2245.83 788.945 2244.73 789.434C2241.36 790.944 2238.39 791.627 2235.32 791.627Z" fill="#B98E5F"/>
<path d="M1199.95 563.063C1287.55 417.914 1406.34 422.922 1514.42 427.93C1559.94 430.041 1603.57 432.152 1642.17 423.034C1676.98 414.804 1731.44 351.215 1733.2 349.787C1741.04 353.468 1840.44 369.297 1894.42 408.134C1860.67 459.474 1837.64 625.499 1798.69 677.646C1798.69 677.646 1784.94 711.903 1746.37 727.66C1710.62 740.694 1643.99 764.008 1559.26 739.674C1466.37 706.334 1452.11 716.676 1401.57 702.673C1276.29 666.304 1171.38 626.948 1199.95 563.063Z" fill="#DBAF7E"/>
<path d="M942.331 1031.46C948.425 1022.45 952.382 1008.12 956.54 993.02C958.466 986.105 960.412 979.017 962.698 971.898C964.02 967.778 964.93 958.599 965.861 948.839C969.649 910.155 976.779 837.428 1037.32 839.845C1085.37 841.66 1106.16 831.982 1132.89 819.427C1141.42 815.419 1150.23 811.309 1160.62 807.219C1186.63 796.898 1183.98 769.77 1177.04 722.743C1175.35 711.168 1173.6 699.194 1172.42 686.864C1166.43 623.499 1191.76 558.207 1238.47 516.464C1254.95 501.727 1271.86 494.261 1288.73 494.261C1308.18 494.261 1326.55 504.327 1341.88 523.409C1381.13 572.291 1393.66 667.272 1371.66 749.26C1351.75 823.435 1290.29 901.425 1250.72 919.018C1235.98 925.565 1212.72 928.911 1181.69 928.911C1153.35 928.911 1125.89 926.167 1114.18 925.004L1111.2 924.719C1098.12 923.485 1065.79 936.417 1046.64 950.001C1033.36 959.405 1027.69 985.85 1023.1 1007.15C1022.22 1011.19 1021.38 1015.1 1020.52 1018.81C1015.65 1039.64 1031.04 1066.43 1040.69 1080.49L1046.72 1089.38L1036.71 1093.78C1025.56 1098.66 1015.42 1101.02 1005.7 1101.02C995.876 1101.02 986.735 1098.53 978.483 1093.7C964.348 1097.05 951.483 1090.87 943.812 1077.24C935.549 1062.52 934.915 1042.4 942.331 1031.46Z" fill="#DBAF7E"/>
<path d="M1642.17 423.034C1659.11 419.005 1680.71 401.892 1698.61 385.197C1698.41 400.005 1704.73 412.284 1714.55 422.453C1715.63 424.859 1716.93 427.103 1718.35 429.286C1701.42 437.965 1680.84 441.086 1662.13 436.955C1646.64 476.781 1688.31 518.718 1685.91 555.801C1683.32 595.8 1623.94 617.605 1607.63 651.22C1597.1 672.923 1592.45 720.143 1562.02 723.376C1506.82 729.22 1479.41 622.46 1449.7 596.861C1421.66 572.741 1364.85 578.534 1328.38 575.128C1319.56 574.302 1307.97 575.138 1295.75 575.954C1272.36 577.545 1246.64 579.126 1233.5 569.161C1227.37 564.521 1221.12 552.721 1215.43 539.442C1301.24 418.516 1412.61 423.218 1514.47 427.929C1559.97 430.03 1603.58 432.141 1642.17 423.034Z" fill="#8B7E6F"/>
<path d="M1757.37 697.41C1761.99 682.112 1764.66 666.722 1760.35 655.106C1757.65 647.773 1752.38 640.267 1745.28 633.464C1755.79 612.679 1766.8 592.741 1773.02 579.829C1786.37 552.099 1810.88 537.688 1817.61 505.246C1818.57 500.656 1819.18 495.914 1819.62 491.151C1823.71 492.212 1827.94 493.252 1832.32 494.262C1820.79 547.56 1815.59 593.954 1800.39 635.3C1793.27 654.698 1781.43 679.318 1757.37 697.41Z" fill="#CEA271"/>
<path d="M1831.92 602.154C1831.78 602.052 1831.66 601.95 1831.52 601.838C1845.94 555.668 1858.78 500.728 1872.58 458.77C1872.85 458.699 1873.11 458.617 1873.37 458.536C1859.72 501.034 1846.64 556.015 1831.92 602.154Z" fill="#F3E7DC"/>
<path d="M1831.91 602.186C1831.78 602.073 1831.65 601.972 1831.52 601.87C1831.52 601.849 1831.52 601.859 1831.52 601.839C1831.66 601.951 1831.78 602.053 1831.92 602.155C1831.92 602.176 1831.92 602.175 1831.91 602.186Z" fill="#D5C9BE"/>
<path d="M1798.69 677.646C1810.93 661.267 1821.6 633.639 1831.52 601.87C1831.65 601.972 1831.79 602.074 1831.91 602.186C1821.85 633.741 1811.02 661.165 1798.69 677.646Z" fill="#A07045"/>
<path d="M1633.78 750.291C1611.02 750.291 1586.05 747.364 1559.27 739.674C1557.08 738.878 1554.93 738.124 1552.81 737.379C1465.69 706.803 1450.92 716.349 1401.57 702.673C1394.63 700.654 1387.8 698.614 1381.01 696.584C1381.93 686.692 1382.4 676.799 1382.43 666.977C1413.16 667.834 1457.18 679.195 1509.75 692.26C1523.27 710.363 1538.82 723.611 1557.68 723.611C1559.11 723.611 1560.56 723.54 1562.02 723.376C1571.44 722.377 1578.41 717.155 1583.82 709.771C1594.94 712.189 1606.3 714.534 1617.85 716.737C1623.86 717.889 1629.64 718.848 1635.26 719.623C1640.51 728.353 1646.87 739.001 1653.09 749.597C1646.85 750.046 1640.41 750.291 1633.78 750.291Z" fill="#CB9D6A"/>
<path d="M1381.01 696.584C1380.98 696.574 1380.95 696.564 1380.93 696.564C1381.86 686.65 1382.33 676.758 1382.38 666.977C1382.4 666.977 1382.41 666.977 1382.43 666.977C1382.4 676.798 1381.93 686.691 1381.01 696.584Z" fill="#9D6629"/>
<path d="M1557.68 723.611C1538.82 723.611 1523.27 710.363 1509.75 692.26C1532.92 698.023 1557.74 704.112 1583.82 709.772C1578.41 717.156 1571.44 722.377 1562.02 723.377C1560.56 723.54 1559.11 723.611 1557.68 723.611Z" fill="#796E61"/>
<path d="M1746.74 727.508C1747.45 725.601 1748.15 723.734 1748.81 722.001C1750.57 717.258 1752.43 712.261 1754.2 707.161C1785.88 694.393 1798.69 677.646 1798.69 677.646C1798.69 677.646 1793.04 691.741 1778.8 706.009C1770.92 713.913 1760.4 721.868 1746.74 727.508ZM1819.62 491.152C1757.15 474.987 1727.77 453.478 1712.53 431.989C1713.76 431.479 1714.98 430.929 1716.18 430.357C1742.52 443.402 1771.43 456.497 1792.62 461.668C1794.01 462.014 1795.38 462.32 1796.71 462.586C1805.68 464.411 1813.76 465.859 1821.11 466.797C1820.59 474.569 1820.38 482.901 1819.62 491.152Z" fill="#C19666"/>
<path d="M1712.53 431.988C1711.31 430.275 1710.18 428.551 1709.13 426.838C1711.46 428.001 1713.81 429.184 1716.18 430.356C1714.98 430.928 1713.76 431.478 1712.53 431.988Z" fill="#464646"/>
<path d="M1754.2 707.16C1755.31 703.937 1756.39 700.674 1757.38 697.41C1781.43 679.318 1793.27 654.698 1800.39 635.3C1815.59 593.954 1820.79 547.56 1832.32 494.262C1827.94 493.252 1823.71 492.212 1819.62 491.151C1820.38 482.9 1820.59 474.568 1821.11 466.796C1827.44 467.602 1833.23 468.041 1838.58 468.041C1851.67 468.041 1862.11 465.399 1871.4 459.107C1871.8 458.994 1872.19 458.882 1872.58 458.77C1849.27 529.61 1828.72 637.452 1798.69 677.645C1798.69 677.645 1785.88 694.391 1754.2 707.16Z" fill="#BC905E"/>
<path d="M1778 381.086L1628.31 347.104C1627.03 375.711 1633.56 389.918 1653.48 398.536C1673.45 407.184 1753.99 453.895 1796.71 462.584C1839.49 471.304 1861.93 471.151 1881.41 450.448C1900.91 429.754 1782.37 383.921 1778 381.086Z" fill="#887865"/>
<path d="M1838.58 468.041C1833.23 468.041 1827.44 467.602 1821.11 466.797C1813.76 465.858 1805.68 464.41 1796.71 462.585C1795.38 462.319 1794.01 462.014 1792.62 461.667C1785.16 459.841 1776.7 457.006 1767.79 453.579L1766.01 452.345L1765.44 452.641C1737.68 441.728 1705.54 425.135 1682.06 412.907C1682.16 410.347 1680.66 407.991 1679 405.961L1678.11 404.768C1670.87 393.6 1657.23 374.967 1645.59 370.021C1639.36 367.349 1633.61 365.717 1628.6 363.137C1628.34 360.526 1628.21 357.762 1628.17 354.825C1634.01 359.2 1641.4 360.883 1649.57 364.34C1661.17 369.307 1674.81 387.95 1682.07 399.128C1689.3 410.326 1710.61 405.319 1731.92 413.978C1735.33 415.354 1738.29 417.231 1741.05 419.444C1741.06 419.454 1741.08 419.464 1741.09 419.475C1741.09 419.485 1741.09 419.485 1741.1 419.485C1755.58 431.142 1764.2 451.978 1798.92 458.148C1811.9 460.473 1827.06 462.595 1842.04 462.605C1852.14 462.605 1862.17 461.636 1871.39 459.107C1862.11 465.4 1851.67 468.041 1838.58 468.041Z" fill="#7B6F61"/>
<path d="M1857.11 245.739C1855.62 233.103 1859.21 209.401 1866.39 187.423C1873.52 165.414 1867.91 163.721 1857.39 167.933C1846.92 172.196 1821.56 192.777 1811.88 204.659C1802.18 216.561 1774.55 262.924 1769.37 271.267C1764.25 279.64 1820.96 284.668 1820.96 284.668L1853.09 282.781C1854.17 270.441 1858.52 258.345 1857.11 245.739Z" fill="#DBAF7E"/>
<path d="M1824.6 264.637C1815.03 261.128 1805.48 258.936 1796.72 258.936C1794.16 258.936 1791.68 259.119 1789.26 259.517C1784.84 260.231 1780.46 261.393 1776.22 262.821C1777.18 259.486 1778.24 256.712 1779.21 255.111C1789.73 237.886 1805.15 212.94 1811.88 204.658C1816.96 198.427 1826.35 189.809 1835.65 182.394C1837.66 180.966 1839.95 180.324 1842.2 180.324C1848.1 180.324 1853.53 184.801 1851.7 191.043C1849.08 199.834 1844.99 209.339 1841.15 216.295C1834.86 227.707 1830.45 250.95 1824.6 264.637Z" fill="#C49B6F"/>
<path d="M1863.76 285.157C1841.29 270.165 1811.68 255.856 1789.26 259.517C1766.89 263.148 1745.6 277.936 1737.47 283.668C1729.34 289.471 1728.69 294.264 1703.77 285.85C1678.84 277.447 1637.19 276.406 1627.96 282.73C1618.68 289.053 1621.86 298.283 1624.22 299.802C1619.2 303.045 1618.41 307.094 1619.68 313.101C1620.94 319.119 1615.34 336.926 1621.65 347.522C1627.93 358.088 1637.96 359.424 1649.57 364.34C1661.17 369.307 1674.81 387.95 1682.07 399.128C1689.3 410.326 1710.61 405.319 1731.92 413.977C1753.25 422.626 1757.51 450.754 1798.92 458.148C1840.28 465.562 1903.6 470.917 1913.2 412.152C1922.78 353.407 1901.07 310.032 1863.76 285.157Z" fill="#8B7E6F"/>
<path d="M1896.56 317.987C1893.21 312.867 1885.37 316.273 1885.8 322.229C1886.19 326.9 1886.22 331.531 1885.72 335.722C1882.29 362.147 1861.98 400.882 1860.95 391.724C1860.34 385.849 1852.27 386.053 1847.54 389.725C1838.49 396.803 1837.77 386.298 1833.53 378.741C1824.83 363.238 1805.1 375.273 1789.01 387.307C1774.29 398.302 1762.62 409.296 1765.15 399.291C1766.55 393.824 1759.26 390.551 1755.05 394.457C1744.64 404.044 1741.43 400.239 1739.27 396.435C1737.15 392.692 1736.02 388.949 1730.07 397.965C1726.31 403.656 1726.98 411.642 1733.37 414.599C1753.46 423.921 1758.51 450.968 1798.92 458.148C1840.28 465.562 1903.6 470.917 1913.2 412.152C1919.45 373.988 1912.46 342.341 1896.56 317.987Z" fill="#DBAF7E"/>
<path d="M1781.65 319.557C1779.16 318.405 1774.83 315.713 1779.22 313.999C1782.11 312.898 1788.87 311.46 1793.13 310.593C1795.43 310.124 1797.87 311.011 1799.19 312.898C1801.4 316.029 1804.64 321.077 1806.18 325.738C1808.64 333.193 1811.32 335.763 1811.32 335.763C1811.32 335.763 1797.68 338.405 1787.13 323.066C1784.74 321.546 1781.65 319.557 1781.65 319.557Z" fill="#EBEBEB"/>
<path d="M1794.9 306.81C1792.77 304.545 1788.72 303.257 1785.32 304.464C1779.65 306.419 1773.29 310.432 1775.41 317.676L1775.5 317.94C1781.68 324.345 1788.57 327.978 1794.8 330.002C1799.32 329.048 1804.01 327.196 1806.99 323.689L1805.64 320.93C1803.26 315.859 1798.38 310.317 1794.9 306.81Z" fill="#275B97"/>
<path d="M1788.07 323.002C1786.77 323.002 1785.46 322.623 1784.34 321.837C1781.71 319.943 1781.21 316.504 1783.25 314.1C1784.4 312.73 1786.16 312.002 1787.93 312.002C1789.22 312.002 1790.53 312.395 1791.63 313.211C1794.28 315.091 1794.76 318.558 1792.78 320.933C1791.59 322.288 1789.84 323.002 1788.07 323.002Z" fill="#203C5E"/>
<path d="M1647.65 311.766C1648.74 316.09 1651.53 322.423 1658.81 323.249C1666.08 324.075 1676.78 309.236 1666.74 297.202C1664.61 294.652 1662.51 292.306 1660.32 290.236C1648.96 279.344 1629.26 274.581 1622.79 288.513C1621.6 291.062 1621.54 293.612 1621.97 295.672C1622.55 298.242 1622.16 300.935 1620.69 303.087C1616.75 309.043 1621.96 316.008 1628.76 318.864C1632.95 320.577 1637.19 321.648 1639.66 322.219C1646.49 323.698 1640.68 318.323 1638.98 310.991C1637.21 303.668 1646.56 307.472 1647.65 311.766Z" fill="#494545"/>
<path d="M1867.35 300.179C1861.66 293.316 1849.03 286.635 1875.02 281.322C1883.57 279.598 1893.11 274.275 1906.17 262.658C1931.52 240.119 1963.11 216.478 1980.98 220.272C1998.82 224.066 2013.75 233.123 2001.74 249.379C1989.69 265.585 1988.11 265.861 1979.86 284.555C1971.59 303.239 1965.01 308.705 1960.2 320.505C1955.35 332.295 1949.62 349.368 1938.35 367.389C1927.09 385.451 1905.23 416.72 1906.65 429.356C1904.2 384.89 1909.04 357.466 1892.03 330.816C1884.75 319.373 1873.86 307.941 1867.35 300.179Z" fill="#DBAF7E"/>
<path d="M1909.96 350.674C1903.09 350.674 1903.96 344.983 1900.08 323.923C1896.05 302.23 1903.34 280.088 1922.71 261.506C1938.69 246.198 1957.77 228.207 1970.09 228.207C1972.73 228.207 1975.06 229.034 1976.98 230.89C1987.85 241.445 1985.56 243.393 1977.24 257.906C1968.91 272.45 1968.11 286.667 1953.27 296.1C1938.47 305.534 1938.1 324.351 1931.65 332.275C1924.74 340.822 1918.08 350.378 1910.56 350.664C1910.36 350.674 1910.15 350.674 1909.96 350.674Z" fill="#C49B6F"/>
<path d="M1644.71 618.329C1649.06 615.77 1653.63 613.669 1658.33 612.068C1702.65 596.82 1750.06 627.202 1760.35 655.106C1767.04 673.138 1756.92 700.236 1748.81 722C1746.37 728.425 1743.28 736.747 1742.07 741.612C1758.69 744.284 1813.95 742.601 1825.82 738.522L1828.63 737.41C1831.44 736.329 1834.52 735.095 1837.88 733.983C1851.13 729.404 1871.33 724.723 1893.72 736.451C1907.78 743.815 1947.38 747.486 1976.32 750.158C1994.76 751.841 2010.67 753.32 2019.33 755.472C2037.36 759.939 2048.97 767.629 2053.87 778.266C2058.11 787.516 2056.99 798.215 2050.59 809.954C2044.34 821.335 2036.36 828.801 2026.79 832.054C2021.32 833.951 2016.57 834.063 2013.22 833.666C2005.59 837.296 1987.48 842.997 1961.05 835.817C1934.76 828.729 1903.01 815.063 1892.09 810.209C1886.71 811.973 1875.7 814.451 1860.11 811.871C1842.56 808.934 1779.87 814.808 1738.13 823.324C1696.65 831.758 1688.07 819.132 1679.74 798.867C1679.15 797.44 1678.53 795.941 1677.85 794.411C1670.14 776.532 1623.58 700.327 1623.06 699.501C1604.07 668.028 1596.03 646.845 1644.71 618.329Z" fill="#DBAF7E"/>
<path d="M1985.4 839.234C1978.36 839.234 1970.22 838.306 1961.05 835.818C1934.76 828.73 1903.01 815.063 1892.09 810.209C1888.39 811.433 1882 812.983 1873.27 812.983C1869.34 812.983 1864.94 812.667 1860.11 811.871C1856.98 811.351 1852.45 811.106 1846.85 811.106C1820.94 811.106 1772.45 816.318 1738.13 823.324C1729.21 825.14 1721.81 825.976 1715.61 825.976C1692.96 825.976 1686.28 814.778 1679.74 798.868C1679.15 797.44 1678.53 795.941 1677.85 794.411C1674.53 786.721 1664.03 768.231 1653.09 749.598C1646.87 739.001 1640.51 728.354 1635.26 719.624C1628.27 708.007 1623.23 699.767 1623.06 699.502C1616.02 687.783 1610.47 677.503 1608.79 667.722L1610.22 651.353C1612.34 645.601 1616.28 639.921 1622.69 633.995C1655.04 709.884 1699.4 789.393 1710.4 797.654C1714.99 801.091 1735.92 802.651 1761.45 802.651C1803.06 802.651 1856.9 798.511 1872.29 791.606C1873.68 790.984 1875.31 790.699 1877.16 790.699C1897.46 790.699 1945.18 825.058 1998.22 838.163C1994.46 838.806 1990.19 839.234 1985.4 839.234Z" fill="#CB9D6A"/>
<path d="M1289.11 466.929L1289.11 466.919C1314.28 450.652 1340.55 440.576 1367.28 434.497C1367.26 434.507 1367.24 434.518 1367.22 434.528C1340.5 440.596 1314.26 450.673 1289.11 466.929Z" fill="#D1D1D1"/>
<path d="M1213.48 542.165C1236.97 508.377 1262.42 484.165 1289.11 466.919L1289.11 466.929C1262.44 484.175 1236.98 508.377 1213.48 542.165Z" fill="#9D6629"/>
<path d="M1198.96 565.643C1199.27 564.786 1199.56 563.939 1199.95 563.062C1200.02 562.94 1200.1 562.817 1200.17 562.695C1204.54 555.485 1208.98 548.651 1213.48 542.165C1236.98 508.377 1262.44 484.175 1289.11 466.929C1314.26 450.672 1340.5 440.596 1367.22 434.528C1367.2 434.538 1367.17 434.558 1367.14 434.568C1312.9 446.919 1260.62 475.761 1215.43 539.442C1215.59 539.799 1215.74 540.156 1215.89 540.503C1209.63 548.427 1203.97 556.841 1198.96 565.643Z" fill="#9D6629"/>
<path d="M956.519 1090.55C951.515 1087.61 947.156 1083.16 943.812 1077.24C939.39 1069.37 937.158 1059.94 937.168 1051.2C937.179 1043.62 938.882 1036.55 942.331 1031.46C948.425 1022.45 952.382 1008.12 956.54 993.02C958.466 986.106 960.412 979.017 962.698 971.899C964.02 967.778 964.93 958.6 965.861 948.839C969.596 910.788 976.547 839.784 1034.41 839.784C1035.36 839.784 1036.33 839.805 1037.32 839.845C1041.23 839.988 1044.97 840.06 1048.53 840.06C1088.8 840.06 1108.34 830.962 1132.89 819.428C1141.42 815.419 1150.23 811.309 1160.62 807.22C1176.57 800.886 1181.73 788.24 1181.75 768.556C1181.76 756.145 1179.72 740.928 1177.04 722.744C1175.35 711.168 1173.6 699.195 1172.42 686.864C1168.49 644.988 1178.26 602.317 1198.78 566.122C1198.84 565.959 1198.89 565.806 1198.96 565.642C1203.97 556.841 1209.63 548.427 1215.9 540.502C1218.73 547.04 1221.69 553.18 1224.71 558.228C1211.38 581.603 1203.62 606.886 1203.62 633.994C1203.62 741.163 1242.31 801.682 1190.02 824.853C1137.72 848.045 1109.46 850.065 1059.26 851.054C1009.05 852.084 996.49 857.112 981.868 923.679C969.289 980.762 934.449 1047.58 956.519 1090.55Z" fill="#CB9D6A"/>
<path d="M1224.71 558.229C1221.69 553.18 1218.73 547.04 1215.89 540.503C1215.74 540.156 1215.59 539.799 1215.43 539.443C1260.62 475.762 1312.9 446.92 1367.14 434.569C1308.28 466.236 1253.5 507.775 1224.71 558.229Z" fill="#796E61"/>
<path d="M1816.01 344.545C1814.63 344.545 1812.98 344.29 1811.06 343.851C1798.69 341.026 1777.51 331.154 1768.26 325.779C1758.98 320.435 1679.68 310.491 1699.12 306.218C1700.38 305.932 1701.79 305.82 1703.34 305.82C1708.13 305.82 1714.21 306.952 1721.01 308.084C1727.83 309.227 1735.36 310.359 1743.01 310.359C1749.99 310.359 1757.08 309.41 1763.83 306.667C1776.13 301.639 1786.61 296.631 1795.22 296.631C1803.37 296.631 1809.84 301.119 1814.6 314.316C1822.84 337.222 1823.47 344.545 1816.01 344.545ZM1799.33 333.785C1803.24 335.57 1806.72 335.937 1808.9 335.937C1810.42 335.937 1811.32 335.764 1811.32 335.764C1811.32 335.764 1809.08 333.622 1806.83 327.574L1806.18 325.739C1804.64 321.078 1801.4 316.029 1799.19 312.898C1798.1 311.348 1796.26 310.471 1794.34 310.471C1793.94 310.471 1793.53 310.512 1793.12 310.593C1788.87 311.46 1782.11 312.898 1779.22 314C1774.83 315.713 1779.16 318.406 1781.64 319.558C1781.64 319.558 1784.73 321.547 1787.13 323.066C1789.92 327.125 1792.92 329.92 1795.83 331.848C1797.02 332.633 1798.19 333.265 1799.33 333.785Z" fill="#7B6F61"/>
<path d="M1722.01 1143.14C1731.59 1146.36 1737.85 1152.4 1736 1156.62C1734.15 1160.83 1724.89 1161.64 1715.31 1158.41C1705.73 1155.18 1699.47 1149.15 1701.32 1144.93C1703.17 1140.72 1712.43 1139.91 1722.01 1143.14Z" fill="#B5D4E8"/>
<path d="M1715.5 1159.01C1709.22 1166.11 1707.43 1174.12 1711.51 1176.88C1715.59 1179.65 1723.98 1176.13 1730.27 1169.02C1736.55 1161.92 1738.34 1153.91 1734.26 1151.15C1730.18 1148.38 1721.78 1151.9 1715.5 1159.01Z" fill="#B5D4E8"/>
<path d="M1804.72 1122.9C1798.44 1130.01 1796.65 1138.01 1800.73 1140.78C1804.81 1143.55 1813.2 1140.03 1819.49 1132.92C1825.77 1125.81 1827.56 1117.81 1823.48 1115.04C1819.4 1112.27 1811 1115.79 1804.72 1122.9Z" fill="#B5D4E8"/>
<path d="M1819.68 1133.51C1829.26 1136.74 1835.52 1142.77 1833.67 1146.99C1831.82 1151.21 1822.55 1152.01 1812.97 1148.79C1803.4 1145.56 1797.13 1139.53 1798.98 1135.31C1800.83 1131.09 1810.1 1130.29 1819.68 1133.51Z" fill="#B5D4E8"/>
<path d="M1808.14 1141.24L1729.93 1160.37L1726.65 1150.09L1804.86 1130.95L1808.14 1141.24Z" fill="#B5D4E8"/>
<path d="M1722.01 1133.05C1731.59 1136.27 1737.85 1142.3 1736 1146.52C1734.15 1150.74 1724.89 1151.54 1715.31 1148.31C1705.73 1145.09 1699.47 1139.06 1701.32 1134.84C1703.17 1130.62 1712.43 1129.82 1722.01 1133.05Z" fill="white"/>
<path d="M1715.5 1148.91C1709.22 1156.02 1707.43 1164.02 1711.51 1166.79C1715.59 1169.56 1723.98 1166.04 1730.27 1158.93C1736.55 1151.82 1738.34 1143.82 1734.26 1141.05C1730.18 1138.29 1721.78 1141.81 1715.5 1148.91Z" fill="white"/>
<path d="M1804.72 1112.81C1798.44 1119.91 1796.65 1127.92 1800.73 1130.68C1804.81 1133.45 1813.2 1129.93 1819.49 1122.83C1825.77 1115.72 1827.56 1107.71 1823.48 1104.95C1819.4 1102.18 1811 1105.7 1804.72 1112.81Z" fill="white"/>
<path d="M1819.68 1123.42C1829.26 1126.65 1835.52 1132.68 1833.67 1136.9C1831.82 1141.12 1822.55 1141.92 1812.97 1138.69C1803.4 1135.47 1797.13 1129.43 1798.98 1125.21C1800.83 1121 1810.1 1120.19 1819.68 1123.42Z" fill="white"/>
<path d="M1808.14 1131.14L1729.93 1150.28L1726.65 1139.99L1804.86 1120.86L1808.14 1131.14Z" fill="white"/>
<path fill-rule="evenodd" clip-rule="evenodd" d="M1841.49 1082C1864.35 1082 1882.99 1072.8 1882.99 1061.5C1882.99 1050.21 1864.35 1041 1841.49 1041C1818.63 1041 1799.99 1050.21 1799.99 1061.5C1799.99 1072.8 1818.63 1082 1841.49 1082Z" fill="#ACCADE"/>
<path d="M1884.99 1035.51C1884.99 1056.21 1865.94 1073 1842.48 1073C1819.01 1073 1799.99 1056.21 1799.99 1035.51C1799.99 1014.8 1819.01 998.002 1842.48 998.002C1865.94 998.002 1884.99 1014.8 1884.99 1035.51Z" fill="#0F92CD"/>
<path d="M1860.42 1025.35C1860.42 1038.44 1848.41 1049.03 1833.61 1049.03C1818.79 1049.03 1806.78 1038.44 1806.78 1025.35C1806.78 1012.29 1818.79 1001.68 1833.61 1001.68C1848.41 1001.68 1860.42 1012.29 1860.42 1025.35Z" fill="#0EA5E9"/>
<path d="M1841.36 1017.52C1841.36 1024.74 1834.73 1030.58 1826.54 1030.58C1818.38 1030.58 1811.76 1024.74 1811.76 1017.52C1811.76 1010.3 1818.38 1004.45 1826.54 1004.45C1834.73 1004.45 1841.36 1010.3 1841.36 1017.52Z" fill="#10B2FB"/>
<mask id="mask0_47_20" style="mask-type:luminance" maskUnits="userSpaceOnUse" x="0" y="1031" width="987" height="207">
<path d="M574.518 1237.04C294.235 1237.04 160.516 1203.87 224.154 1150.55C-63.9998 1145.5 -106.584 1032 288.099 1032C294.373 1032 300.795 1032.03 307.291 1032.08C309.883 1034.1 313.057 1035.08 316.686 1035.08C320.198 1035.08 324.145 1034.16 328.419 1032.38C362.719 1033 399.939 1034.42 440.153 1036.74C469.978 1038.47 507.018 1062.48 503.463 1088.05C530.908 1086.29 556.807 1085.57 583.119 1085.57C657.041 1085.57 734.126 1091.25 857.297 1095.44C981.452 1099.63 1158.94 1232.56 604.004 1236.92C593.996 1237 584.188 1237.04 574.518 1237.04Z" fill="white"/>
</mask>
<g mask="url(#mask0_47_20)">
<path d="M-106.431 1233.32L1159.09 1233.32L1159.09 1028.29L-106.431 1028.29L-106.431 1233.32Z" fill="#C8E1F1"/>
</g>
<path d="M730.714 922.551C737.168 915.188 743.24 908.233 748.954 901.663C743.23 908.241 737.146 915.196 730.714 922.551Z" fill="#D6D6D6"/>
<path d="M62.9636 1067.62C69.0788 1059.68 73.5434 1046.81 78.2303 1033.21C80.378 1027.01 82.5892 1020.58 85.0966 1014.22C86.5567 1010.52 87.9321 1002.15 89.3392 993.301C95.0841 958.075 105.844 891.875 161.145 897.381C192.388 900.432 211.389 897.329 228.645 891.74C223.016 881.286 213.992 869.315 202.83 854.913C196.164 846.335 189.245 837.463 182.664 828.05C148.915 779.617 139.372 716.354 157.833 662.933C164.372 644.086 174.56 630.879 188.113 623.729C203.761 615.468 223.154 615.744 244.155 624.576C298.102 647.197 351.615 718.251 371.41 793.529C384.286 842.491 380.815 902.154 369.051 943.327C361.581 969.313 337.639 988.281 309.676 988.141C240.484 987.752 167.44 946.59 138.335 1049.74C137.298 1053.4 136.282 1056.96 135.288 1060.27C131.024 1074.37 137.002 1092.18 143.635 1105.84C149.02 1116.93 144.958 1131.12 132.516 1133.57C127.088 1134.65 121.915 1135.01 116.932 1134.72C107.918 1134.19 99.6759 1131.43 92.4075 1126.56C79.2885 1128.83 67.8939 1122.48 61.6835 1109.59C54.9652 1095.67 55.5471 1077.24 62.9636 1067.62Z" fill="#4D4A4A"/>
<path d="M78.231 1033.21C80.3788 1027.01 82.5899 1020.58 85.0974 1014.22C86.5574 1010.52 87.9328 1002.15 89.3399 993.301C95.0848 958.075 105.845 891.875 161.146 897.381C172.995 898.544 183.046 898.819 191.944 898.401C227.259 914.097 250.736 932.372 246.631 981.664C200.006 976.074 158.564 978.063 138.335 1049.74C137.299 1053.4 136.283 1056.96 135.288 1060.27C131.025 1074.37 137.002 1092.18 143.636 1105.84C149.021 1116.93 144.958 1131.12 132.517 1133.57C127.089 1134.65 121.916 1135.01 116.932 1134.72C107.918 1134.19 99.6767 1131.43 92.4083 1126.56C79.2892 1128.83 67.8946 1122.48 61.6842 1109.59C54.966 1095.67 55.5478 1077.24 62.9643 1067.62C69.0795 1059.68 73.5442 1046.82 78.231 1033.21Z" fill="#AC7955"/>
<path d="M418.628 33.9873C375.452 5.10451 326.266 0.0968885 297.267 10.6118C242.346 30.5299 283.671 56.5163 333.196 82.5843C351.615 92.2935 328.012 129.131 368.099 121.095C430.721 108.53 450.157 55.0987 418.628 33.9873Z" fill="#3D3939"/>
<path d="M187.923 490.462C193.086 473.522 215.557 419.693 233.385 383.539C270.107 324.967 302.545 234.229 331.058 164.796L457.71 207.957L502.304 213.924C497.311 252.301 529.801 318.889 545.83 393.421C568.672 441.151 522.512 522.588 499.257 552.695C475.114 583.985 432.604 623.474 423.346 680.24C408.767 769.57 409.582 828.368 305.634 814.392C269.155 809.468 187.902 807.019 163.737 726.198C140.842 649.756 165.588 563.587 187.923 490.462Z" fill="#575757"/>
<path d="M540.329 370.362C540.318 370.331 540.318 370.301 540.307 370.27C540.318 370.301 540.329 370.331 540.329 370.362ZM540.233 369.964C535.039 350.015 529.029 330.832 523.348 312.831C523.337 312.831 523.327 312.821 523.327 312.821C529.029 330.832 535.028 350.015 540.233 369.964Z" fill="#7D8E68"/>
<path d="M523.348 312.831C517.371 293.943 511.742 276.36 507.732 260.552L507.711 260.542C507.711 260.542 507.722 260.583 507.732 260.654C511.731 276.422 517.36 293.974 523.327 312.821C523.327 312.821 523.338 312.831 523.348 312.831Z" fill="#545454"/>
<path d="M420.3 699.618C420.66 697.272 421.03 694.896 421.4 692.499C422.024 688.481 422.67 684.402 423.347 680.241C432.604 623.474 475.114 583.985 499.257 552.695C504.886 545.423 511.848 535.133 518.841 523.058C512.821 519.611 506.463 516.031 500.178 512.512C491.725 526.495 479.441 541.395 461.508 556.877C405.022 605.616 381.006 638.436 382.709 681.281C395.543 686.564 408.165 692.703 420.3 699.618ZM542.064 377.195C541.503 374.911 540.921 372.626 540.329 370.362C540.329 370.332 540.318 370.301 540.308 370.27C540.276 370.168 540.255 370.066 540.233 369.965C535.028 350.016 529.029 330.832 523.327 312.821C517.36 293.974 511.731 276.422 507.732 260.654C508.113 263.551 515.963 322.581 519.846 369.383C528.173 370.995 535.79 373.667 542.064 377.195Z" fill="#4D4A4A"/>
<path d="M293.066 264.886C302.27 232.097 337.237 146.816 339.004 133.567C340.728 120.35 344.548 89.356 375.261 69.9478C405.974 50.509 472.977 48.2856 501.204 56.2508C529.442 64.2262 557.14 76.1486 550.549 96.0973C569.201 112.14 569.519 88.0301 580.913 97.2192C587.864 96.954 601.205 105.409 606.749 135.893C609.976 153.598 609.204 173.057 605.913 187.825L524.057 216.004L539.905 258.818C533.039 259.501 526.352 259.787 520.406 259.491C472.374 268.65 455.943 318.205 411.963 307.242C368.003 296.278 279.058 314.799 293.066 264.886Z" fill="#575757"/>
<path d="M523.497 204.929C541.08 206.887 567.985 197.626 563.245 184.827C558.526 172.048 558.304 130.488 576.862 130.529C584.754 130.529 594.678 126.908 603.47 122.778C614.06 155.353 613.542 195.067 595.239 210.15C564.589 213.71 520.28 222.511 561.235 228.875C602.169 235.219 595.228 225.347 598.593 233.516C603.174 248.069 595.027 258.35 584.299 263.327C573.54 268.283 543.715 270.313 520.481 259.523C479.315 222.216 508.018 203.226 523.497 204.929Z" fill="#CF936A"/>
<path d="M580.564 97.3319C584.436 102.962 591.218 112.773 592.562 119.055C596.973 120.31 599.629 120.197 602.739 119.249C603.977 118.882 604.591 117.566 604.062 116.434C599.343 106.205 592.424 96.7302 580.564 97.3319Z" fill="#272727"/>
<path d="M494.348 46.1854C457.668 9.92886 410.354 -4.02295 379.821 0.98463C321.981 10.4593 357.402 43.5439 400.885 78.2094C417.073 91.1312 386.582 122.972 427.536 122.462C491.502 121.605 521.158 72.7225 494.348 46.1854Z" fill="#4A4848"/>
<path d="M429.748 406.17C432.181 401.856 435.048 397.838 438.233 394.176C468.576 359.47 525.379 362.693 548.888 381.785C564.07 394.146 569.497 422.478 573.825 445.211C575.115 451.952 576.777 460.631 578.268 465.425C594.032 459.672 640.891 431.402 649.027 422.09L650.889 419.785C652.73 417.47 654.761 414.91 657.057 412.32C661.606 407.108 667.615 401.05 675.688 396.206C693.621 385.415 715.955 394.125 735.687 401.376C751.112 407.037 769.352 412.503 784.513 417.072C802.234 422.365 817.511 426.945 825.499 430.749C842.194 438.704 851.938 448.515 854.477 459.897C856.689 469.769 853.314 479.998 844.522 490.269C836.016 500.192 826.578 505.903 816.559 507.219C810.804 507.984 806.106 507.117 802.932 506.097C794.691 508.137 775.742 510.136 751.419 497.938C737.03 490.697 721.266 480.855 708.814 472.574C687.283 483.935 645.091 513.919 617.562 537.948C586.129 565.362 572.132 558.61 554.347 545.179C553.088 544.199 551.776 543.22 550.401 542.221C534.393 530.533 454.325 487.301 453.447 486.821C420.607 468.851 402.6 454.43 429.748 406.17Z" fill="#575757"/>
<path d="M548.507 1164.39C542.614 1156.31 531.357 1148.17 519.422 1139.59C513.984 1135.7 508.367 1131.64 502.876 1127.35C499.691 1124.88 491.862 1120.98 483.599 1116.9C450.717 1100.58 388.909 1069.91 411.698 1021.06C429.673 982.254 428.266 961.88 426.277 935.666C425.632 927.324 424.997 918.675 424.933 908.763C424.711 883.899 399.859 876.82 355.953 866.45C345.15 863.9 333.989 861.267 322.732 858.024C264.701 841.3 215.642 798.25 194.747 745.687C187.373 727.154 186.526 710.704 192.271 696.875C198.926 680.903 214.097 669.256 236.156 663.209C292.706 647.666 380.868 669.787 445.744 715.803C504.473 757.467 552.379 834.487 554.389 872.944C555.172 887.314 550.178 907.527 539.598 932.997C529.928 956.239 518.153 977.827 513.127 987.05L511.837 989.393C506.314 999.695 506.716 1030.64 512.144 1051C515.931 1065.09 537.366 1078.79 554.59 1089.78C557.859 1091.89 561.044 1093.93 564.017 1095.9C576.565 1104.22 595.947 1104.34 611.499 1102.56C624.121 1101.14 636.785 1109.32 635.294 1121.47C634.648 1126.77 633.41 1131.63 631.538 1136.09C628.194 1144.18 622.915 1150.84 615.795 1155.95C613.912 1168.7 604.062 1177.13 589.44 1178.77C573.623 1180.53 555.627 1174.2 548.507 1164.39Z" fill="#575757"/>
<path d="M633.781 434.022C640.986 429.117 646.657 424.793 649.027 422.09L650.889 419.785C652.73 417.47 654.761 414.91 657.057 412.319C661.606 407.108 667.615 401.05 675.688 396.206C693.621 385.415 715.955 394.125 735.687 401.376C751.112 407.037 769.352 412.503 784.513 417.072C802.234 422.365 817.511 426.945 825.499 430.749C842.194 438.704 851.938 448.515 854.477 459.897C856.689 469.769 853.314 479.998 844.522 490.268C836.016 500.192 826.578 505.903 816.559 507.219C810.804 507.984 806.106 507.117 802.932 506.097C794.691 508.137 775.742 510.136 751.419 497.938C737.03 490.697 721.266 480.855 708.814 472.574C699.45 477.51 686.109 486.097 671.816 496.041L633.781 434.022Z" fill="#CF936A"/>
<path d="M411.698 1021.06C429.673 982.254 428.266 961.88 426.277 935.666C425.632 927.324 424.997 918.675 424.933 908.763C424.912 907.826 424.796 906.946 424.732 906.03C456.112 858.147 496.475 846.798 551.956 858.586C553.31 863.765 554.177 868.629 554.389 872.944C555.172 887.314 550.178 907.527 539.598 932.997C529.928 956.239 518.153 977.827 513.127 987.05L511.837 989.393C506.314 999.695 506.716 1030.64 512.144 1051C515.931 1065.09 537.366 1078.79 554.59 1089.78C557.859 1091.89 561.044 1093.93 564.017 1095.9C576.565 1104.22 595.947 1104.34 611.499 1102.56C624.121 1101.14 636.785 1109.32 635.294 1121.47C634.648 1126.77 633.41 1131.63 631.538 1136.09C628.194 1144.18 622.915 1150.84 615.795 1155.95C613.912 1168.7 604.062 1177.13 589.44 1178.77C573.623 1180.53 555.627 1174.2 548.507 1164.39C542.614 1156.31 531.357 1148.17 519.422 1139.59C513.984 1135.7 508.367 1131.64 502.876 1127.35C499.691 1124.88 491.862 1120.98 483.599 1116.9C450.717 1100.58 388.909 1069.91 411.698 1021.06Z" fill="#CF936A"/>
<path d="M580.67 556.877C590.351 556.877 601.756 551.737 617.562 537.948C633.093 524.394 653.28 508.953 671.805 496.021L665.33 485.466C632.522 507.505 592.371 533.899 580.564 535.256C580.363 535.286 580.162 535.297 579.929 535.297C563.139 535.286 471.348 471.973 438.561 448.954C435.694 446.955 432.361 445.976 429.039 445.976C424.659 445.976 420.311 447.689 417.137 451.024C419.983 466.802 434.096 476.225 453.447 486.822C453.912 487.077 476.574 499.315 500.178 512.512C506.463 516.031 512.821 519.611 518.841 523.058C532.902 531.095 545.122 538.376 550.401 542.221C551.776 543.221 553.088 544.2 554.347 545.179C563.192 551.859 571.095 556.877 580.67 556.877Z" fill="#4F4D4D"/>
<path d="M313.242 855.024C313.189 855.004 313.136 854.997 313.083 854.976C313.136 854.997 313.189 855.016 313.242 855.024ZM163.737 726.198C160.468 715.303 158.183 704.228 156.712 693.009C158.172 704.228 160.468 715.314 163.737 726.198Z" fill="#181818"/>
<path d="M226.719 797.23C213.092 781.749 202.153 764.308 194.747 745.687C188.367 729.664 186.876 715.202 190.293 702.647C188.611 694.815 187.891 686.533 187.627 677.936L154.744 667.462C154.966 676.039 155.601 684.555 156.712 693.01C158.183 704.228 160.468 715.304 163.737 726.198C175.354 764.981 200.111 785.625 226.719 797.23Z" fill="#444141"/>
<path d="M424.796 905.926C434.096 891.752 444.189 880.799 455.224 872.688C449.416 865.776 435.45 860.45 406.768 854.271C326.985 837.084 278.402 805.278 247.075 758.004C209.57 746.144 195.435 726.472 190.293 702.647C186.876 715.201 188.367 729.663 194.747 745.686C202.153 764.307 213.093 781.748 226.72 797.23C226.762 797.25 226.804 797.27 226.846 797.29C249.434 822.921 279.333 843.275 312.734 854.853C312.745 854.853 312.755 854.861 312.766 854.861C312.871 854.905 312.977 854.932 313.083 854.976C313.136 854.996 313.189 855.004 313.242 855.024C313.295 855.047 313.348 855.068 313.401 855.087C316.257 856.067 319.135 856.972 322.034 857.82C322.055 857.829 322.065 857.829 322.076 857.829C322.171 857.86 322.277 857.892 322.372 857.924C322.489 857.952 322.605 857.992 322.732 858.023C333.989 861.267 345.151 863.9 355.953 866.45C364.523 868.477 372.362 870.374 379.44 872.302C407.202 879.871 423.156 887.927 424.796 905.926Z" fill="#4F4D4D"/>
<path d="M582.246 1178.98C535.324 1147.07 485.577 1083.1 452.346 1069.64C407.254 1051.35 438.602 995.444 445.532 938.717C449.986 902.381 465.56 884.999 455.223 872.688C444.188 880.799 434.095 891.752 424.796 905.926C424.88 906.846 424.922 907.794 424.933 908.762C424.996 918.674 425.631 927.324 426.277 935.665C426.869 943.398 427.398 950.617 427.409 957.96C427.409 975.505 424.372 993.706 411.697 1021.06C408.291 1028.36 406.778 1035.26 406.767 1041.75C406.725 1078.75 455.625 1103.02 483.599 1116.9C491.862 1120.98 499.691 1124.88 502.875 1127.35C508.366 1131.64 513.984 1135.7 519.422 1139.59C531.356 1148.17 542.613 1156.3 548.506 1164.39C554.59 1172.75 568.492 1178.52 582.246 1178.98Z" fill="#AC7955"/>
<path d="M179.184 664.228C171.461 655.885 158.215 657.058 148.143 663.116C132.21 672.703 108.913 684.778 88.5674 691.03C79.712 693.784 72.5283 701.555 74.3163 710.326C76.1995 719.801 85.732 725.217 95.73 725.134C112.245 724.923 143.149 725.767 171.069 708.235C182.115 701.331 191.478 689.847 187.627 677.935C185.977 672.683 182.729 668.052 179.184 664.228Z" fill="#4F4D4D"/>
<path d="M523.852 99.3995C516.058 99.1492 509.923 105.238 505.93 111.785C501.959 118.316 499.109 125.838 493.556 131.022L496.567 132.609L499.826 131.439C503.949 129.81 508.742 130.857 513.232 130.486C517.592 130.131 521.655 128.469 525.247 126.191L529.354 122.714L532.645 117.196L537.184 113.147L542.696 109.435L543.017 108.752L538.586 105.209C533.88 102.658 529.18 99.5734 523.852 99.3995Z" fill="#4A4949"/>
<path d="M531.145 113.869C533.755 113.033 538.382 110.898 534.238 108.654C531.508 107.203 524.978 104.938 520.865 103.55C518.635 102.799 516.11 103.378 514.564 105.086C511.982 107.919 508.143 112.527 506.033 116.96C502.673 124.054 499.688 126.271 499.688 126.271C499.688 126.271 512.903 130.584 525.272 116.671C527.833 115.459 531.145 113.869 531.145 113.869Z" fill="#DBDBDB"/>
<path d="M513.386 105.999C515.089 103.965 518.57 102.568 521.671 103.267C526.828 104.387 532.769 107.131 531.457 113.238L531.404 113.462C526.443 119.226 520.643 122.782 515.294 124.966C511.221 124.568 506.931 123.451 504.02 120.834L505.003 118.461C506.707 114.111 510.581 109.163 513.386 105.999Z" fill="#5E3113"/>
<path d="M526.016 115.115C527.126 115.254 528.287 115.103 529.325 114.616C531.755 113.437 532.52 110.84 531.004 108.768C530.147 107.588 528.714 106.839 527.197 106.649C526.087 106.511 524.925 106.673 523.912 107.186C521.455 108.351 520.715 110.973 522.179 113.016C523.064 114.188 524.499 114.926 526.016 115.115Z" fill="#9E653E"/>
<path fill-rule="evenodd" clip-rule="evenodd" d="M318.002 194C310.695 198.922 306.502 222.499 304.002 230.499C291.408 262.92 347.901 305.156 401.727 325.812C447.758 343.47 514.169 322.595 521.001 304.995C517.5 289.496 514 279.996 512.5 276.996C488.732 289.681 466.36 302.042 422.197 283.373C378.039 264.687 313.394 225.3 318.002 194Z" fill="#F97316"/>
<path fill-rule="evenodd" clip-rule="evenodd" d="M383.73 272.033C389.857 277.173 389.822 287.282 383.671 294.615C377.51 301.959 367.56 303.752 361.433 298.612C355.315 293.48 355.341 283.362 361.502 276.018C367.653 268.685 377.612 266.901 383.73 272.033Z" fill="#F9A062"/>
<path fill-rule="evenodd" clip-rule="evenodd" d="M466.864 295.753C473.464 295.609 478.597 302.785 478.331 311.739C478.048 320.699 472.481 328.077 465.874 328.203C459.28 328.33 454.158 321.159 454.426 312.204C454.696 303.24 460.275 295.865 466.864 295.753Z" fill="#F9A062"/>
<path fill-rule="evenodd" clip-rule="evenodd" d="M420.809 289.994C428.033 291.915 432.242 300.582 430.217 309.31C428.174 318.04 420.675 323.561 413.447 321.62C406.231 319.684 402.035 311.027 404.06 302.297C406.09 293.56 413.602 288.046 420.809 289.994Z" fill="#F9A062"/>
<path fill-rule="evenodd" clip-rule="evenodd" d="M507.86 282.705C512.363 280.541 518.063 284.204 520.596 290.85C523.142 297.52 521.541 304.668 517.049 306.825C512.558 308.989 506.858 305.325 504.313 298.671C501.79 292.014 503.38 284.867 507.86 282.705Z" fill="#F9A062"/>
<path fill-rule="evenodd" clip-rule="evenodd" d="M346.234 246.413C351.574 252.031 350.846 261.899 344.601 268.46C338.362 275.033 328.975 275.802 323.642 270.196C318.307 264.591 319.035 254.722 325.275 248.149C331.51 241.593 340.9 240.808 346.234 246.413Z" fill="#F9A062"/>
<path fill-rule="evenodd" clip-rule="evenodd" d="M311.885 207.596C318.734 208.586 322.43 216.508 320.137 225.287C317.831 234.076 310.414 240.398 303.548 239.406C296.699 238.416 293.002 230.493 295.303 221.708C297.597 212.93 305.036 206.605 311.885 207.596Z" fill="#F9A062"/>
<path d="M787.727 507.565C752.284 490.391 719.582 467.209 706.399 458C698.686 462.64 682.944 473.39 665 485.444L671.475 496C685.673 486.077 698.887 477.642 708.261 472.676C708.261 472.665 708.272 472.665 708.272 472.665C708.346 472.625 708.409 472.594 708.483 472.553C717.529 478.57 728.331 485.414 739.08 491.482C743.122 493.767 747.153 495.939 751.088 497.917C756.23 500.498 761.14 502.446 765.752 503.884C774.153 506.505 781.569 507.443 787.727 507.565Z" fill="#AC7955"/>
</svg>
