<svg width="617" height="426" viewBox="0 0 617 426" fill="none" xmlns="http://www.w3.org/2000/svg">
<path d="M157.941 365.715C122.009 384.839 63.5739 384.74 27.419 365.496C-8.73587 346.248 -8.92033 315.142 27.0065 296.018C62.9381 276.89 121.373 276.993 157.528 296.233C193.688 315.481 193.867 346.587 157.941 365.715Z" fill="#C8E1F1"/>
<path d="M119.689 110.306C111.604 112.122 105.363 121.626 101.437 127.698C99.5882 130.552 97.9576 133.524 96.5551 136.593C95.7203 138.414 92.7017 143.362 93.7403 145.33L94.7449 145.832C98.6176 146.468 102.874 146.015 106.683 145.215C112.327 144.019 117.84 142.27 123.086 140.006C125.663 138.893 128.226 137.631 130.337 135.85C132.069 134.387 133.253 132.506 134.695 130.82C138.393 126.498 138.058 121.644 134.661 117.017C132.792 114.467 130.337 112.207 127.279 110.977C124.596 109.902 122.062 109.773 119.689 110.306Z" fill="#DB743E"/>
<path d="M175.343 116.766C177.042 115.921 179.201 115.916 180.905 116.745C182.346 117.447 183.404 118.667 184.258 119.948C184.802 120.772 185.287 121.661 185.389 122.622C185.52 123.89 184.967 125.146 184.205 126.212C183.661 126.967 182.987 127.679 182.103 128.086C181.55 128.35 180.973 128.539 180.41 128.243C179.653 127.84 179.235 127.057 179.032 126.296C178.813 125.482 178.779 124.632 178.522 123.827C177.911 121.948 176.125 120.619 174.232 119.868C173.494 119.576 172.291 119.418 172.956 118.489C173.499 117.723 174.499 117.192 175.343 116.766Z" fill="#565555"/>
<path d="M183.405 133.036C183.181 135.675 181.517 138.512 179.517 140.307L179.279 140.489C177.28 142.28 175.15 144.019 172.951 145.591C172 146.239 171.092 146.901 170.098 147.506C165.968 150.222 161.178 152.382 157.931 155.988C154.68 159.63 151.156 162.889 150.579 167.702C150.38 169.242 150.399 170.794 150.511 172.316C150.564 173.55 150.71 174.746 150.899 175.95C151.185 177.935 151.564 179.891 151.855 181.836C155.364 204.096 150.637 227.606 137.204 246.361C132.56 252.826 126.911 258.68 122.223 265.145C118.971 269.651 110.745 281.249 115.953 286.354C117.646 288.018 120.247 288.604 122.494 289.619C131.351 293.652 132.103 302.466 130.186 310.434C128.546 317.409 125.455 323.888 121.15 329.612C114.429 338.601 104.888 345.669 93.7113 349.656C93.2017 349.859 92.6921 350.06 92.1874 350.221C79.885 354.354 66.2092 355.424 53.3342 353.379C51.1504 353.026 48.9811 352.552 46.8264 351.921C41.6968 350.493 36.8777 348.158 33.1603 344.565C27.8705 339.451 25.7304 329.906 23.2553 323.271C19.9456 314.323 17.752 304.892 18.0966 295.352C18.6061 280.719 25.9051 265.566 39.7216 258.29C44.6862 255.691 50.6651 254.452 53.242 249.602C56.3819 243.574 58.7356 236.948 61.6669 230.787C67.8059 217.86 74.1682 204.996 80.9042 192.33C89.8385 175.474 101.5 159.269 104.732 140.494C105.892 133.85 107.615 127.372 112.774 122.378C115.035 120.202 117.7 118.426 120.621 117.124C126.479 114.476 133.302 113.679 139.504 115.478C143.377 116.633 146.91 118.077 150.928 118.749L151.666 118.856C156.038 119.478 160.523 119.455 164.9 118.727C168.957 118.051 173.296 116.794 176.979 118.498C180.032 119.903 181.72 122.955 182.609 125.975C183.264 128.278 183.642 130.682 183.405 133.036Z" fill="#DB743E"/>
<path d="M150.87 176.642C150.39 180.973 146.585 184.406 142.387 186.419C138.194 188.427 133.53 189.376 129.153 191.005C124.775 192.629 120.437 195.198 118.656 199.215C117.797 201.108 117.549 203.13 117.345 205.154C116.7 210.621 116.054 216.124 115.409 221.632C114.997 225.274 114.579 228.92 114.739 232.612C115.132 241.029 118.646 249.668 115.967 257.74C114.637 261.674 111.934 265.119 109.251 268.447C104.834 273.95 100.321 279.535 94.2839 283.553C92.1437 284.962 89.8482 286.192 87.9895 287.875C83.947 291.455 82.2582 296.747 81.6515 301.884C81.2633 305.288 80.6809 310.144 81.8553 313.433C82.8793 316.465 85.7378 319.365 87.349 322.288C90.9256 328.976 93.1532 336.324 93.7258 343.773C93.8423 345.701 93.8665 347.671 93.7113 349.656C93.2017 349.859 92.6921 350.06 92.1874 350.221C79.885 354.354 66.2092 355.424 53.3342 353.379C51.1504 353.026 48.9811 352.552 46.8264 351.921C41.6968 350.493 36.8777 348.158 33.1603 344.565C27.8705 339.451 25.7304 329.906 23.2553 323.271C19.9456 314.323 17.752 304.892 18.0966 295.352C18.6061 280.719 25.9051 265.566 39.7216 258.29C44.6862 255.691 50.6651 254.452 53.242 249.602C56.3819 243.574 58.7356 236.948 61.6669 230.787C67.8059 217.86 74.1682 204.996 80.9042 192.33C89.8385 175.474 101.5 159.269 104.732 140.494C105.892 133.85 107.615 127.372 112.774 122.378C115.035 120.202 117.7 118.426 120.621 117.124L121.402 116.9C125.11 116.109 129.24 115.727 133.05 116.399C134.913 116.731 136.864 117.348 138.165 118.695C139.727 120.314 140.208 122.726 142.236 123.97C145.24 125.827 149.754 125.478 152.127 128.342C154.214 130.932 152.865 134.66 151.156 137.497C149.545 140.261 148.511 143.483 147.905 146.824C147.109 151.175 147.007 155.698 147.269 159.688C147.444 163.219 148.977 166.91 149.894 170.096C150.132 170.813 150.322 171.564 150.511 172.316C150.787 173.529 150.977 174.728 150.899 175.95L150.87 176.642Z" fill="#A75931"/>
<path d="M183.404 133.036C183.181 135.675 181.517 138.512 179.517 140.307L179.279 140.489C177.547 139.197 176.368 137.256 175.499 135.34C174.421 132.834 173.63 130.149 171.898 127.957C169.151 124.45 164.395 122.817 159.761 122.126C156.528 121.644 153.219 121.931 149.972 121.613C148.341 121.473 146.541 121.317 145.012 120.655C143.479 120.032 142.066 118.19 144.881 118.435C146.905 118.566 148.914 118.905 150.928 118.75L151.666 118.857C156.038 119.479 160.522 119.456 164.9 118.727C168.957 118.051 173.296 116.794 176.979 118.498C180.032 119.903 181.72 122.955 182.608 125.975C183.264 128.279 183.642 130.682 183.404 133.036Z" fill="#F4F4F4"/>
<path d="M41.323 334.698C35.2519 330.803 28.4141 327.929 22.8525 323.392C16.1554 317.939 12.0206 310.089 10.6036 301.96C8.2353 288.345 12.1323 270.035 26.1332 262.612C27.0844 262.11 28.1035 261.637 28.7441 260.819C29.3895 260.004 29.4866 258.711 28.6325 258.08C28.2491 257.799 27.7443 257.696 27.259 257.628C20.6541 256.684 14.1754 260.389 9.89019 265.113C1.55272 274.322 -0.568041 287.101 0.121086 299.079C1.0286 314.828 6.63864 330.892 18.7711 342.001C23.5659 346.395 29.6322 350.422 36.3293 351.68C38.9063 352.168 45.5937 353.651 47.8552 351.925C52.6209 348.284 48.1803 339.72 44.6134 336.999C43.5554 336.184 42.4538 335.424 41.323 334.698Z" fill="#DB743E"/>
<path d="M168.04 154.467C166.88 159.403 165.303 164.32 162.522 168.673C159.678 173.125 155.456 176.977 150.19 178.763C148.666 172.298 144.061 166.898 139.98 161.46C136.102 156.297 129.109 146.261 133.821 139.889C134.651 138.77 135.835 137.926 137.024 137.132C143.498 132.829 150.972 129.138 158.698 127.168C162.415 126.221 164.065 126.614 166.079 129.72C168.015 132.704 169.083 136.131 169.462 139.576C169.995 144.44 169.229 149.339 168.122 154.123L168.04 154.467Z" fill="#DB743E"/>
<path d="M173.106 299.982C172.398 304.341 169.04 308.179 164.735 309.978C160.377 311.853 155.242 311.732 150.841 310.13C149.472 309.607 148.118 308.953 147.39 307.831C146.4 306.234 146.73 304.255 145.731 302.743C144.658 301.092 143.095 299.445 141.887 297.79C141.538 297.311 141.14 296.824 140.703 296.38C139.902 295.49 139.058 294.644 138.267 293.714C136.995 292.215 136.651 290.39 136.224 288.469C135.311 284.344 134.36 280.174 133.453 276.004L133.268 275.172C132.705 272.837 132.147 270.456 131.633 268.121L131.54 267.709L131.298 266.622L131.007 265.535C130.856 264.827 130.701 264.196 130.55 263.49C130.337 262.492 130.133 261.454 129.924 260.452L129.861 260.2C129.585 258.993 129.449 257.713 129.226 256.425L129.23 256.385C128.91 254.277 128.595 252.16 127.716 250.285C127.085 248.679 126.212 247.213 125.479 245.682C124.703 244.138 123.979 242.527 123.591 240.688C122.669 236.644 122.698 232.438 123.023 228.34C123.586 220.571 125.071 212.898 128.066 205.667C129.551 201.953 131.57 198.199 134.923 195.749C144.119 189.023 149.861 196.263 152.569 204.549C153.923 208.714 154.495 213.135 154.32 216.187C154.01 221.434 153.394 226.657 152.51 231.856C152.467 232.263 152.423 232.746 152.331 233.19C152.127 234.317 151.928 235.445 151.719 236.607C151.258 238.944 150.797 241.315 150.346 243.61C150.244 244.173 150.142 244.737 150.04 245.302C148.681 253.48 149.71 261.709 151.365 269.861C151.787 271.861 152.248 273.861 152.758 275.869C153.311 277.839 153.913 279.772 154.558 281.705C155.534 284.778 155.417 287.669 158.916 289.486L160.149 290C162.071 290.734 164.206 291.082 166.235 291.624C168.7 292.246 171.248 293.41 172.456 295.476C173.014 296.502 173.208 297.664 173.184 298.806C173.184 299.218 173.15 299.583 173.106 299.982Z" fill="#F4F4F4"/>
<path d="M160.149 290C159.668 291.222 158.974 292.389 157.795 293.106C154.772 294.931 150.812 292.877 147.172 292.886C144.333 292.926 142.101 294.371 140.703 296.379C139.902 295.49 139.058 294.644 138.267 293.714C136.995 292.215 136.651 290.39 136.224 288.469C135.311 284.344 134.36 280.174 133.453 276.004L133.268 275.172C132.705 272.837 132.147 270.456 131.633 268.121L131.54 267.709L131.298 266.622L131.007 265.535C130.856 264.827 130.701 264.196 130.55 263.49C130.337 262.492 130.133 261.453 129.924 260.452L129.861 260.2C129.585 258.993 129.449 257.713 129.226 256.425L129.23 256.385C128.91 254.277 128.595 252.16 127.716 250.285C127.085 248.679 126.212 247.212 125.479 245.681C124.703 244.138 123.979 242.526 123.591 240.688C122.669 236.644 122.698 232.438 123.023 228.34C123.586 220.571 125.071 212.898 128.066 205.667C129.551 201.953 131.57 198.199 134.923 195.748C144.119 189.023 149.861 196.263 152.569 204.549C153.923 208.714 154.495 213.135 154.32 216.187C154.01 221.434 153.394 226.656 152.51 231.856C152.467 232.263 152.423 232.746 152.331 233.19C152.127 234.317 151.928 235.444 151.719 236.606C151.258 238.943 150.797 241.315 150.346 243.61C150.244 244.173 150.142 244.737 150.04 245.302C148.681 253.48 149.71 261.708 151.365 269.86C151.787 271.861 152.248 273.861 152.758 275.869C153.311 277.839 153.913 279.772 154.558 281.705C155.534 284.778 155.417 287.669 158.916 289.486L160.149 290Z" fill="#B46034"/>
<path d="M160.149 290C159.668 291.222 158.974 292.389 157.795 293.106C154.772 294.931 150.812 292.877 147.172 292.886C144.333 292.926 142.101 294.371 140.703 296.379C139.902 295.49 139.058 294.644 138.267 293.714C136.995 292.215 136.651 290.39 136.224 288.469C135.311 284.344 134.36 280.174 133.452 276.004L133.268 275.172C135.112 274.474 137.393 274.3 139.538 274.567C143.387 275.105 147.109 277.306 150.918 276.488C151.598 276.339 152.195 276.147 152.758 275.869C153.311 277.839 153.913 279.772 154.558 281.705C155.534 284.778 155.417 287.669 158.916 289.486L160.149 290Z" fill="#DB743E"/>
<path d="M161.702 331.589C160.057 333.821 158.251 335.917 156.276 337.911C155.325 338.931 154.296 339.907 153.224 340.879C151.156 342.864 148.89 344.713 146.497 346.431C142.673 349.168 138.616 351.558 134.442 353.817C124.926 358.883 114.778 363.201 103.941 365.093C101.728 365.474 99.4329 365.804 97.215 365.411L96.1328 365.155L95.6184 364.949L94.6381 364.579L93.551 363.913L92.5756 363.049L91.7942 362.001C90.5713 359.648 91.4448 357.147 91.3429 354.646C91.3429 354.198 91.207 353.777 90.9789 353.428C89.7803 351.236 85.4271 350.458 83.5247 349.067C80.016 346.475 77.9826 342.05 76.7791 338.185C74.1827 329.656 74.9883 320.363 78.5261 312.166C82.1076 303.928 88.4165 296.824 96.1716 291.606C103.019 287.043 109.517 285.477 117.68 287.691C123.12 289.145 128.697 291.87 131.094 296.654C132.977 300.372 132.589 304.676 131.909 308.743C131.322 312.375 130.516 315.946 129.536 319.499C129.041 321.298 127.546 323.827 127.886 325.732C127.983 326.521 128.4 327.209 129.318 327.742L130.123 328.135C131.963 328.784 134.049 328.35 135.893 327.651C137.922 326.887 139.863 325.666 141.392 324.161L141.639 323.894C142.033 323.518 142.382 323.137 142.736 322.717C143.678 321.696 144.546 320.587 145.614 319.657C148.191 317.428 151.734 316.179 155.267 316.319C157.252 316.404 159.285 316.909 160.804 318.143C162.478 319.554 163.391 321.473 163.721 323.503C164.138 326.363 163.342 329.401 161.702 331.589Z" fill="#B46034"/>
<path d="M156.276 337.911C155.325 338.931 154.296 339.907 153.224 340.879C151.156 342.864 148.89 344.713 146.497 346.431C142.673 349.168 138.616 351.558 134.442 353.817C124.926 358.883 114.778 363.201 103.941 365.093C101.728 365.474 99.4329 365.804 97.2151 365.411L96.1329 365.155L95.6184 364.949L94.6382 364.579L93.5511 363.913L92.5757 363.049L91.7943 362.001C90.5713 359.648 91.4449 357.147 91.343 354.646C91.343 354.198 91.2071 353.777 90.979 353.428C93.818 352.977 96.9142 353.04 99.8552 352.923C103.995 352.748 108.1 352.036 112.085 350.829C114.458 350.131 116.865 349.156 118.67 347.51C121.504 344.932 122.436 341.008 122.543 337.294C122.659 334.85 122.465 332.386 123.281 330.041C124.159 327.459 125.819 326.417 127.886 325.732C127.983 326.521 128.401 327.209 129.318 327.742L130.123 328.135C131.963 328.784 134.049 328.35 135.894 327.651C137.922 326.887 139.863 325.666 141.392 324.161L141.64 323.894C142.033 323.518 142.382 323.137 142.736 322.717C143.794 322.77 144.881 322.984 145.993 323.409C149.196 324.582 151.724 327.212 152.884 330.215C153.762 332.501 153.995 335.016 155.437 336.981L156.276 337.911Z" fill="#DB743E"/>
<path d="M161.702 331.589C159.193 334.93 156.393 338.042 153.224 340.878C153.316 339.089 153.233 337.279 152.879 335.535C151.666 329.088 147.681 325.557 141.639 323.894C143.018 322.537 144.153 320.962 145.614 319.657C148.191 317.428 151.734 316.178 155.267 316.318C157.251 316.404 159.285 316.909 160.804 318.143C162.478 319.553 163.391 321.472 163.721 323.503C164.138 326.363 163.342 329.401 161.702 331.589Z" fill="#F4F4F4"/>
<path d="M150.489 139.531C150.627 137.917 151.074 136.272 152.026 134.909C153.439 132.887 155.948 131.682 158.272 131.899L158.521 131.964L158.695 132.188C159.427 133.6 160.039 135.146 159.938 136.792C159.806 138.896 158.478 140.894 156.743 142.197C155.408 143.202 153.284 144.32 151.632 144.349C149.951 144.379 150.394 140.693 150.489 139.531Z" fill="#E78A59"/>
<path d="M153.788 141.029C154.851 141.519 156.227 141.344 157.237 140.591C157.706 140.245 158.089 139.787 158.429 139.305C159.014 138.471 159.476 137.533 159.631 136.55C159.792 135.566 159.628 134.528 159.061 133.773C158.358 132.838 157.087 132.426 155.883 132.633C154.677 132.85 153.563 133.629 152.818 134.652C151.405 136.578 151.634 140.04 153.788 141.029Z" fill="#A77635"/>
<path d="M143.047 133.445C143.669 133.353 144.287 133.27 144.909 133.178C143.087 135.736 142.515 139.283 143.428 142.36C143.853 141.865 144.278 141.375 144.707 140.88C144.425 144.534 146.108 148.29 148.931 150.304C148.305 146.674 147.459 143.088 146.412 139.574C146.98 139.948 147.553 140.322 148.126 140.7C146.949 137.958 147.038 134.799 147.15 131.776C147.369 132.63 147.763 133.426 148.3 134.091C148.296 132.911 148.3 131.727 148.291 130.548C148.282 129.466 148.341 128.641 147.235 129.16C146.443 129.529 145.62 130.572 144.994 131.213L143.047 133.445Z" fill="#A36646"/>
<path d="M157.875 133.16C158.628 133.8 158.679 134.977 157.985 135.794C157.29 136.611 156.117 136.755 155.364 136.115C154.614 135.477 154.562 134.294 155.257 133.476C155.951 132.659 157.125 132.522 157.875 133.16Z" fill="#474442"/>
<path d="M155.236 134.67C155.669 135.038 155.7 135.713 155.298 136.187C154.899 136.656 154.221 136.743 153.788 136.375C153.351 136.004 153.327 135.321 153.726 134.851C154.128 134.378 154.8 134.299 155.236 134.67Z" fill="#E3E1E1"/>
<path d="M99.769 156.932C99.769 156.932 110.712 172.066 123.547 179.125C136.385 186.188 151.5 178.001 151.5 178.001L152.5 187.501C152.5 187.501 129.7 197.204 114.08 188.339C98.4596 179.474 95.0003 167.001 95.0003 167.001L99.769 156.932Z" fill="#FCD34D"/>
<path d="M148.071 179.524C149.845 176.956 155.118 176.97 159.862 179.549C164.595 182.135 166.996 186.315 165.23 188.884C163.455 191.452 158.183 191.438 153.439 188.858C148.706 186.272 146.299 182.096 148.071 179.524Z" fill="#FDE68A"/>
<path d="M491.181 334.176C411.103 344.986 331.574 355.254 282.97 321.815C251.693 286.619 345.348 270.148 425.422 259.345C505.503 248.541 549.563 246.885 580.848 282.086C612.129 317.281 571.254 323.375 491.181 334.176Z" fill="#C8E1F1"/>
<path d="M445.546 49.5079C445.53 47.8958 445.634 46.2779 445.879 44.6679C445.927 45.7209 446.629 46.7289 447.638 47.2079C446.869 37.6171 448.399 28.2949 456.757 22.141C462.018 18.2599 468.484 16.0753 474.97 14.4014C472.095 16.5973 469.163 18.8617 467.321 21.8764C478.701 18.1187 491.484 18.0387 503.053 21.6541C499.533 22.701 496.008 23.7499 492.484 24.7913C499.101 26.8457 504.6 31.4274 508.697 36.7361C512.8 42.0413 515.641 48.0808 518.401 54.0853C516.673 51.2505 514.418 48.6966 511.768 46.5721C515.897 55.9684 512.36 67.6807 503.649 73.4791C504.8 70.0385 504.484 66.1626 502.787 62.8745C502.262 67.494 500.476 71.9567 497.643 75.7253C496.667 74.0236 495.947 72.1933 495.514 70.3138C495.096 71.8574 494.684 73.3965 494.266 74.9405C492.179 71.1933 491.705 66.7031 492.962 62.7067C491.832 64.9244 490.942 67.2504 490.299 69.6447C486.221 64.386 484.738 57.4551 486.356 51.2184C484.909 53.5356 483.466 55.8551 482.02 58.1672C480.698 56.0113 479.589 53.2182 480.605 50.8039C479.091 53.049 478.244 55.6935 478.182 58.3676C478.313 57.429 479.356 56.7087 480.358 56.8656C479.233 56.6889 481.882 68.7342 482.657 69.8459C485.033 73.2577 488.677 75.243 488.845 79.8633C488.818 79.2035 484.147 78.016 483.497 77.857C481.978 77.4812 480.818 77.3099 479.339 77.661C476.069 78.4474 473.451 80.8142 470.128 81.4052C466.124 82.1147 462.24 79.7686 458.904 77.4993C456.897 76.1344 454.884 74.7339 453.296 72.9569C451.476 70.9123 450.278 68.4557 449.259 65.979C447.085 60.7106 445.592 55.0986 445.546 49.5079Z" fill="#82756A"/>
<path d="M312.621 126.726C312.851 138.724 315.873 150.758 314.403 162.657C314.056 165.512 313.412 168.415 311.735 170.805C310.37 172.748 308.401 174.241 306.341 175.535C295.116 182.587 280.677 184.476 270.019 192.25C260.771 198.999 255.48 209.33 250.506 219.301C246.696 226.933 242.824 234.756 242.005 243.193C241.715 246.203 242.137 249.808 244.923 251.382C246.302 252.16 247.999 252.246 249.578 252.042C256.154 251.179 260.855 245.827 264.199 240.49C268.362 233.847 271.457 226.648 275.59 219.986C282.251 209.248 291.88 201.557 304.938 198.78C318.108 195.98 332.877 196.816 344.513 189.633C353.965 183.802 359.248 173.627 362.835 163.537C368.596 147.311 371.204 129.784 363.571 113.451C357.164 99.7607 343.669 92.7122 328.031 96.3066C320.289 98.0864 316.772 104.397 314.62 111.374C313.085 116.325 312.523 121.552 312.621 126.726Z" fill="#989491"/>
<path d="M446.292 131.741C449.396 134.387 452.914 136.734 456.91 137.849C463.837 139.784 471.317 137.79 477.547 134.526C483.777 131.27 489.165 126.788 495.18 123.2C499.454 120.647 504.387 118.491 509.46 119.127C515.589 119.891 520.371 124.504 524.13 129.149C527.14 132.869 529.87 136.793 532.234 140.895C534.237 144.359 533.25 148.405 534.936 152.156C535.697 153.844 536.864 155.535 538.695 156.172C541.187 157.045 543.884 155.636 545.802 153.959C547.176 152.754 548.382 151.387 549.377 149.891C550.184 148.681 550.868 147.366 551.056 145.942C551.544 142.327 549 139.838 547.06 137.025C544.78 133.734 542.454 130.925 539.559 128.02C532.76 121.196 526.934 113.52 522.291 105.273C521.038 103.047 519.384 100.458 516.721 100.298C515.733 100.242 514.77 100.554 513.87 100.92C508.259 103.226 502.82 108.528 496.213 105.888C489.804 103.318 483.349 97.5382 478.899 92.5686C474.261 87.3885 470.412 81.6536 466.063 76.2574C460.287 69.0809 449.934 62.4357 440.134 66.974C435.065 69.3237 432.452 74.6195 430.822 79.7051C426.722 92.5064 428.203 106.352 435.113 118.312C438.004 123.322 441.786 127.902 446.292 131.741Z" fill="#989491"/>
<path d="M496.038 107.737C496.986 97.1843 494.863 86.1287 488.652 78.8985C484.003 73.4975 476.792 69.1539 469.718 67.2694C463.973 65.7329 458.052 64.7596 452.105 64.6234C435.493 64.2555 419.681 70.4452 404.905 77.3059C394.922 81.9461 385.109 86.958 374.682 90.7206C370.494 92.2305 364.805 94.9185 360.192 94.4268C355.341 93.9041 349.976 91.8668 345.174 90.7774C337.64 89.0695 323.555 84.1185 317.456 90.8048C314.865 93.6492 311.614 95.8899 309.343 99.0333C307.005 102.268 305.51 106.003 304.303 109.734C300.98 119.958 299.201 130.584 300.002 141.336C300.112 142.829 301.078 145.78 300.599 147.155C301.49 144.606 303.219 142.33 305.497 140.722C302.426 152.069 301.273 166.001 306.943 176.975C307.261 177.593 311.11 182.734 311.066 182.813C312.339 180.395 313.054 177.721 313.149 175.013C313.005 186.321 317.067 197.71 324.487 206.761C328.197 205.533 330.589 202.217 332.37 198.933C334.388 195.234 335.821 191.369 337.059 187.379C337.98 191.956 339.158 196.752 339.72 201.44C347.302 201.004 354.481 197.788 360.112 193.096C365.706 188.433 369.821 182.396 372.775 175.966C370.806 183.426 371.589 187.204 380.538 188.783C388.97 190.276 398.794 191.344 404.966 185.9C402.415 185.915 399.859 184.843 398.136 183.044C407.576 182.252 417.073 181.425 426.174 179.063C435.286 176.698 444.068 172.699 450.592 166.344C446.544 166.91 442.455 167.215 438.355 167.251C448.6 163.056 458.924 158.816 468.016 152.749C483.133 142.656 494.45 125.292 496.038 107.737Z" fill="#948E8A"/>
<path d="M346.188 154.317C345.724 156.957 345.496 159.636 345.515 162.308C346.903 160.661 348.286 159.011 349.673 157.368C349.634 165.161 349.941 172.96 350.6 180.745C351.098 186.646 350.946 193.604 347.338 198.745C345.972 200.687 343.999 202.178 341.943 203.475C330.713 210.526 316.279 212.417 305.616 220.19C296.363 226.936 291.082 237.274 286.108 247.239C282.293 254.873 278.421 262.697 277.607 271.132C277.308 274.14 277.74 277.749 280.526 279.32C281.905 280.098 283.601 280.184 285.18 279.982C291.756 279.12 296.457 273.771 299.796 268.431C303.959 261.785 307.054 254.586 311.184 247.923C317.854 237.186 327.477 229.501 340.535 226.72C353.71 223.923 368.474 224.756 380.115 217.573C388.948 212.12 394.544 202.56 397.85 193.325C399.767 187.967 400.366 181.904 400.63 176.245C400.719 174.312 401.557 160.334 399.647 159.597C402.737 160.782 404.946 163.797 405.007 166.901C405.572 159.709 405.078 152.328 402.518 145.469C399.959 138.613 395.206 132.297 388.577 128.498C375.626 121.08 362.093 126.543 353.814 136.985C349.804 142.041 347.302 148.05 346.188 154.317Z" fill="#A7A3A0"/>
<path d="M324.138 35.2264C324.317 34.2034 324.536 33.1834 324.789 32.1651C326.21 26.524 328.845 21.2455 330.946 15.8053C331.4 14.6175 331.844 13.3773 331.724 12.1111C331.609 10.8435 330.796 9.5313 329.492 9.16926C328.873 8.99556 328.215 9.04649 327.575 9.11448C321.572 9.75133 315.722 11.7145 310.822 14.975C305.922 18.2263 301.992 22.7894 299.825 28.0521C297.207 34.3996 297.243 41.3755 297.911 48.1031C298.075 49.741 298.527 51.4932 298.454 53.1367C298.41 54.1185 297.852 54.9842 297.811 55.9423C297.726 57.7902 299.293 59.6752 301.141 60.2516C303.241 60.9066 303.872 58.7951 306.106 60.017C308.717 61.4474 311.219 63.1864 314.125 63.9464C317.034 64.696 320.573 64.1953 322.231 61.8751C323.35 60.3033 323.38 58.2694 323.352 56.3606C323.255 49.297 322.911 42.1459 324.138 35.2264Z" fill="#9A948F"/>
<path d="M260.255 122.273C259.797 124.583 259.787 126.967 260.32 129.31C260.852 131.655 261.629 133.421 263.915 134.706C266.04 135.908 268.598 136.244 271.051 136.163C273.102 136.097 275.141 135.763 277.079 135.166C281.662 133.762 285.581 130.982 289.513 128.387C293.442 125.779 297.632 123.265 302.4 122.502C303.36 122.352 304.426 122.292 305.236 122.812C305.667 123.09 305.986 123.511 306.218 123.956C306.631 124.717 306.837 125.571 306.832 126.422C306.828 126.861 306.764 127.299 306.862 127.735C307.282 129.547 308.824 128.411 309.538 127.684C310.738 126.46 312.263 125.419 313.771 124.545C316.166 123.149 318.218 121.533 320.534 120.02C322.359 118.82 326.287 115.988 325.162 113.52C324.223 111.451 321.194 110.25 319.138 109.423C314.512 107.564 309.508 106.747 304.544 106.082C296.696 105.026 288.732 104.472 280.853 105.183C277.796 105.458 275.535 105.612 272.937 107.132C270.472 108.577 268.376 110.27 266.29 112.154C264.582 113.699 262.953 115.387 261.936 117.401C261.161 118.951 260.588 120.594 260.255 122.273Z" fill="#B9B0A9"/>
<path d="M269 133.886C270.688 133.913 272.399 133.655 273.994 133.167C277.26 132.179 280.15 130.351 282.901 128.441C288.628 124.476 294.018 120.015 298.304 114.694C298.974 113.861 299.649 112.9 299.509 111.852C298.897 111.983 298.754 112.361 298.34 112.699C297.876 113.082 297.213 113.277 296.646 113.532C295.267 114.162 293.903 114.833 292.542 115.508C289.931 116.828 287.345 118.195 284.699 119.46C279.467 121.958 273.854 124.053 267.946 124.231C265.025 124.318 260.009 124.842 260.665 128.814C260.975 130.676 262.126 131.84 263.91 132.721C265.486 133.488 267.233 133.852 269 133.886Z" fill="#C7818E"/>
<path d="M283.749 122.186C282.983 129.065 276.391 133.957 269.036 133.115C261.681 132.273 256.34 126.013 257.105 119.134C257.871 112.255 264.454 107.358 271.808 108.2C279.163 109.043 284.514 115.307 283.749 122.186Z" fill="#0F92CD"/>
<path d="M279.375 131.763L279.575 131.72L280.704 131.015C281.643 130.238 282.034 129.515 282.239 128.35C282.553 126.62 282.381 124.69 281.211 123.298L280.823 122.991L280.351 122.998C279.081 123.355 279.035 125.031 278.808 126.032C278.447 127.648 278.578 129.363 278.201 130.999L278.176 131.222L278.309 131.467L279.375 131.763Z" fill="#FDE6D6"/>
<path d="M276.422 117.928C275.938 122.276 271.781 125.362 267.142 124.83C262.498 124.298 259.123 120.35 259.607 116.002C260.09 111.663 264.248 108.571 268.893 109.103C273.531 109.634 276.905 113.589 276.422 117.928Z" fill="#0EA5E9"/>
<path d="M270.735 114.643C270.468 117.042 268.175 118.744 265.609 118.45C263.051 118.157 261.191 115.979 261.458 113.581C261.724 111.183 264.017 109.476 266.575 109.769C269.141 110.062 271.002 112.246 270.735 114.643Z" fill="#10B2FB"/>
<path d="M349.775 97.0135C345.694 106.85 336.88 113.935 326.282 117.167C319.25 119.29 311.854 119.992 304.46 120.625C298.889 121.074 293.244 121.513 287.632 121.066C287.033 121.031 286.479 120.968 285.889 120.9L284.878 120.784C284.393 120.729 283.945 120.644 283.46 120.589C281.458 120.256 279.496 119.806 277.562 119.191C274.064 118.062 270.639 116.224 268.231 113.512L267.65 113.047L266.845 113.025C263.82 113.368 260.614 112.405 258.328 110.5C255.269 107.943 254.168 104.264 255.096 100.653C256.313 96.0831 260.955 94.15 265.08 92.2146C267.457 91.1062 269.786 89.7901 271.824 88.2175C273.862 86.6759 275.606 84.8989 276.92 82.8763C277.606 81.7718 278.152 80.6461 278.576 79.4127C279.54 76.4261 279.475 73.2297 280.099 70.1413C280.869 66.3805 282.701 62.8675 285.346 59.9782C287.353 57.7726 289.841 55.9816 292.288 54.1917C295.85 51.6049 299.53 46.9892 304.312 46.6821C306.943 46.4905 309.673 46.6341 311.951 47.9513L313.076 48.5699C314.045 49.1117 314.969 49.6448 315.904 50.0805C318.231 51.2708 320.601 52.1676 323.653 52.5172C327.755 53.0146 332.084 52.9898 335.898 54.7411C345.52 59.0688 349.821 69.7668 351.574 78.9527C352.733 85.0053 352.135 91.3255 349.775 97.0135Z" fill="#A7A3A0"/>
<path d="M317.13 52.3295L316.288 52.9555C315.597 53.4721 314.881 53.9112 314.186 54.4272C313.497 54.9408 312.876 55.4603 312.343 56.1564C311.067 57.789 309.865 59.4302 308.463 60.9789C305.681 64.1533 302.542 67.051 299.121 69.6536C299.645 69.0513 299.901 68.3253 299.918 67.5386C299.838 68.2519 298.148 69.8723 297.689 70.476C296.863 71.6302 296.057 72.8237 295.293 74.0177C293.717 76.4432 292.249 78.9044 290.877 81.4466C288.566 85.759 285.828 90.1493 288.164 95.0931C288.817 96.481 289.801 97.7451 290.566 99.0848C292.919 103.236 293.23 108.376 291.343 112.671C291.514 111.439 291.208 110.088 290.373 109.072C289.494 113.182 287.989 117.188 285.889 120.899C285.528 121.581 285.144 122.232 284.721 122.869C284.796 122.193 284.842 121.472 284.878 120.783C284.973 119.609 285.005 118.427 284.992 117.243C284.514 118.371 284.002 119.497 283.46 120.588C281.458 120.256 279.496 119.806 277.562 119.191C274.064 118.062 270.639 116.224 268.231 113.512L267.65 113.047L266.845 113.025C263.82 113.368 260.614 112.405 258.328 110.5C255.269 107.943 254.168 104.263 255.096 100.652C256.313 96.083 260.955 94.1499 265.08 92.2145C267.457 91.1061 269.786 89.7899 271.824 88.2173C272.362 88.1137 272.906 88.0112 273.443 87.8765C276.412 87.1306 279.35 85.7212 281.259 83.4388C283.131 81.15 283.893 78.0835 285.649 75.6126C288.304 72.0015 291.355 68.6286 294.785 65.6362C293.983 66.1641 293.123 66.6303 292.264 67.0896C295.77 59.8917 303.154 54.6106 311.397 52.9217C313.271 52.5438 315.162 52.3333 317.13 52.3295Z" fill="#DFDFDF"/>
<path d="M263.961 93.0676C265.076 92.6541 266.233 92.2805 267.435 92.2919C268.839 92.3058 270.168 92.8524 271.458 93.4C273.088 94.089 274.771 94.8358 275.928 96.1268C277.218 97.5715 277.679 99.5622 277.438 101.413C277.205 103.269 276.33 104.999 275.235 106.541C274.403 107.706 273.413 108.801 272.159 109.568C271.055 110.239 269.428 111.01 268.063 110.874C266.797 110.748 266.007 109.817 265.038 109.152C263.806 108.311 262.361 107.629 261.608 106.322C260.877 105.046 261.015 103.489 260.416 102.156C259.908 101.033 258.888 100.095 258.705 98.8915C258.265 95.9998 261.558 93.966 263.961 93.0676Z" fill="#665D5A"/>
<path d="M304.254 68.5345C306.15 66.7986 308.275 65.2483 310.704 64.2576C313.138 63.2655 315.908 62.864 318.519 63.4362C317.504 63.9434 316.732 64.8362 316.421 65.8751C322.345 66.5865 327.711 70.7187 329.624 76.0393C328.659 75.8771 327.719 75.6103 326.817 75.2446C329.061 77.3554 330.417 80.28 330.52 83.231C326.693 79.6478 322.787 76.0026 318.03 73.6128C318.82 74.8915 319.18 76.4016 319.023 77.8582C318.691 76.8245 318.022 75.8841 317.136 75.1958C316.207 74.4748 315.061 74.0338 313.915 73.6955C311.398 72.9429 308.748 72.5883 306.12 72.652C306.956 73.4816 307.656 74.4161 308.196 75.4262C306.617 74.7759 303.378 74.0712 302.313 72.7719C301.129 71.3213 303.238 69.4629 304.254 68.5345Z" fill="#DFDFDF"/>
<path d="M283.336 73.8547C282.733 75.1575 281.662 76.2634 280.298 76.8832C279.336 77.3119 279.165 76.5553 279.267 75.8168C279.367 75.1005 279.571 74.4432 279.622 73.7158C279.674 72.8819 279.732 72.0431 279.791 71.2006C279.855 70.2122 279.99 68.9183 281.116 68.4972C282.964 67.8032 283.744 69.7755 283.848 71.0968C283.918 72.0436 283.733 72.9909 283.336 73.8547Z" fill="#E3E3E3"/>
<path d="M280.406 71.9428C280.394 72.4493 280.418 72.9582 280.467 73.4666C280.517 73.9229 280.497 74.6854 280.825 75.0751C281.481 75.86 282.882 74.3243 283.173 73.8221C283.811 72.7416 283.879 71.312 283.341 70.1481C283.091 69.5989 282.779 69.1486 282.211 68.8488C280.452 67.9249 280.463 70.6584 280.416 71.6303L280.406 71.9428Z" fill="#9C933C"/>
<path d="M283.458 70.6306C283.174 71.1975 282.453 71.445 281.836 71.1729C281.22 70.8948 280.954 70.2118 281.234 69.6388C281.514 69.0658 282.238 68.8294 282.855 69.1019C283.467 69.3734 283.737 70.0574 283.458 70.6306Z" fill="#EBE8E8"/>
<path d="M291.377 63.7401C291.485 62.2779 290.591 60.3856 289.737 59.1715C288.791 57.7956 287.263 56.6854 285.533 56.544C285.959 57.3121 286.413 58.0588 286.904 58.7863C284.644 58.1186 282.124 58.3085 280.032 59.2904C281.043 60.1248 282.302 60.7606 283.383 61.5553C282.352 61.6686 281.37 62.1007 280.624 62.7617C282.459 63.507 284.302 64.2575 285.933 65.341C287.083 66.1105 288.562 67.2996 290.003 66.568C291.068 66.0224 291.294 64.8051 291.377 63.7401Z" fill="#DFDFDF"/>
<path d="M388.977 36.9568C388.562 39.3794 387.199 41.5283 385.645 43.4869C382.533 47.4122 378.701 50.8224 374.604 53.8115L374.153 54.1232C371.201 56.2498 368.13 58.2674 365.757 60.9259C363.505 63.4335 362.01 66.4526 360.551 69.4126C359.098 72.4111 357.702 75.4383 356.449 78.4875C355.518 80.8178 354.183 83.6595 351.169 84.1725C349.2 84.5065 347.196 83.5212 345.607 82.283C344.02 81.0778 342.638 79.6051 340.878 78.6476C339.515 77.8996 338.01 77.531 336.509 77.091C336.034 76.9743 335.556 76.817 335.045 76.6652C333.11 76.0159 331.114 74.9606 330.253 73.2189L329.932 72.324L329.717 71.4116C329.627 70.6403 329.641 69.886 329.65 69.1318C329.634 68.3747 329.577 67.5794 329.534 66.7473C329.11 61.0381 328.055 54.7337 330.946 49.6328C332.345 47.16 334.57 45.2089 336.749 43.3181C342.242 38.5158 347.889 33.632 354.789 30.8023C362.826 27.5066 372.043 27.2164 380.818 28.3242C382.901 28.5957 385.083 28.9722 386.662 30.2057C387.798 31.0949 388.534 32.3674 388.88 33.7219C389.147 34.8031 389.161 35.8943 388.977 36.9568Z" fill="#CDCDCD"/>
<path d="M388.88 33.7224C381.416 33.0966 373.853 33.0853 366.611 34.627C359.07 36.2609 351.979 39.5985 346.101 44.3274C341.388 48.1266 337.404 52.9366 335.891 58.5949C334.173 64.8769 336.09 70.4291 336.494 76.6335L336.508 77.0914C336.034 76.9747 335.555 76.8175 335.045 76.6656C333.11 76.0163 331.114 74.9611 330.253 73.2194L329.932 72.3245L329.717 71.4121C329.627 70.6408 329.64 69.8865 329.65 69.1323C329.667 68.3789 329.681 67.6247 329.553 66.8876L329.534 66.7478C329.11 61.0386 328.054 54.7342 330.946 49.6333C332.345 47.1604 334.57 45.2093 336.748 43.3186C342.242 38.5162 347.889 33.6325 354.789 30.8028C362.826 27.5071 372.043 27.2168 380.818 28.3247C382.901 28.5961 385.082 28.9727 386.662 30.2062C387.798 31.0954 388.534 32.3678 388.88 33.7224Z" fill="#9A948F"/>
<path d="M522.67 137.043C526.944 134.491 531.882 132.333 536.95 132.97C543.078 133.742 547.861 138.346 551.626 142.993C554.63 146.714 557.359 150.646 559.728 154.743C561.727 158.206 560.74 162.252 562.43 166C563.186 167.687 564.358 169.384 566.189 170.02C568.677 170.893 571.379 169.484 573.292 167.801C574.666 166.598 575.872 165.229 576.872 163.733C577.678 162.53 578.357 161.21 578.551 159.785C579.034 156.169 576.49 153.681 574.549 150.872C572.27 147.579 569.943 144.767 567.049 141.864C560.255 135.038 554.428 127.368 549.78 119.117C548.526 116.894 546.877 114.307 544.21 114.151C543.223 114.084 542.265 114.398 541.36 114.768C535.748 117.073 530.31 122.376 523.708 119.732C517.293 117.162 510.839 111.386 506.388 106.416C501.749 101.241 497.902 95.4956 493.553 90.1016C487.776 82.9245 477.423 76.2832 467.624 80.8183C454.484 86.9029 452.093 107.126 454.068 119.323C454.355 117.244 454.933 115.202 455.776 113.271C455.954 121.901 459.123 130.511 464.679 137.495C464.584 135.602 464.482 133.714 464.387 131.819C467.365 139.337 472.669 146.067 479.473 150.959C478.809 149.114 478.157 147.263 477.5 145.414C480.432 149.013 482.252 150.333 486.899 151.65C491.025 152.818 495.393 153.576 499.634 152.728C498.177 152.463 496.787 151.88 495.6 151.042C496.391 151.599 501.729 149.677 502.72 149.388C505.144 148.668 507.529 147.769 509.638 146.443C514.141 143.602 517.981 139.844 522.67 137.043Z" fill="#A7A3A0"/>
<path d="M310.62 76.7382C312.228 76.405 313.959 76.6733 315.53 77.2161C317.807 78.0013 319.895 79.3958 321.192 81.3197L321.372 81.7714L321.213 82.1653C319.796 84.4789 318.198 86.9327 315.557 87.9307C313.781 88.6018 310.758 88.756 308.99 87.8643C306.637 86.6832 304.826 84.4623 303.881 82.1809L303.709 81.1051L304.323 80.321C305.965 78.9227 307.917 77.5216 310.057 76.8789L310.62 76.7382Z" fill="#E3E3E3"/>
<path d="M304.618 81.6483C304.312 83.2746 305.276 85.0936 306.74 86.0625C307.169 86.3521 307.664 86.55 308.171 86.6869C310.47 87.3169 313.135 86.5476 314.524 84.7575C315.917 82.9693 315.848 80.2569 314.271 78.5557C312.805 76.9744 310.618 76.7384 308.62 77.2832C306.554 78.1977 304.988 79.7264 304.618 81.6483Z" fill="#9C933C"/>
<path d="M310.967 83.2316C310.32 84.5363 308.663 85.0891 307.257 84.4624C305.856 83.8381 305.237 82.2744 305.874 80.9667C306.521 79.6616 308.179 79.1051 309.585 79.7336C310.991 80.3608 311.605 81.9235 310.967 83.2316Z" fill="#41414B"/>
<path d="M312.287 82.1789C311.866 83.0311 310.782 83.3946 309.859 82.9792C308.941 82.573 308.537 81.5513 308.959 80.6992C309.375 79.839 310.464 79.4816 311.382 79.8914C312.301 80.297 312.704 81.3206 312.287 82.1789Z" fill="#EBE8E8"/>
</svg>
